<svg width="44" height="38" viewBox="0 0 44 38" fill="none" xmlns="http://www.w3.org/2000/svg">
<path d="M21.8438 0.0078125C22.2933 0.0429637 22.7271 0.191225 23.1055 0.438477C23.484 0.685852 23.7953 1.02523 24.0107 1.4248C24.2261 1.82431 24.3389 2.27189 24.3389 2.72656C24.3388 3.53347 23.9909 4.259 23.4375 4.75879V8.17871H32.4521C33.8865 8.17877 35.2621 8.75386 36.2764 9.77637C37.2906 10.7989 37.8604 12.1858 37.8604 13.6318V31.8066C37.8604 33.2527 37.2906 34.6396 36.2764 35.6621C35.2621 36.6846 33.8865 37.2597 32.4521 37.2598H10.8174C9.38292 37.2598 8.00748 36.6847 6.99316 35.6621C5.97888 34.6396 5.4082 33.2527 5.4082 31.8066V13.6318C5.4082 12.1857 5.97884 10.7989 6.99316 9.77637C8.00748 8.7538 9.38292 8.17871 10.8174 8.17871H19.832V4.75879C19.4958 4.45561 19.2397 4.0718 19.0879 3.64355C18.9362 3.21542 18.8935 2.75586 18.9629 2.30664C19.0323 1.85742 19.2116 1.43258 19.4854 1.07129C19.7592 0.709984 20.1186 0.422961 20.5303 0.237305C20.9421 0.051651 21.394 -0.0273118 21.8438 0.0078125ZM10.8174 11.8145C10.3392 11.8145 9.8801 12.0058 9.54199 12.3467C9.20412 12.6875 9.01465 13.15 9.01465 13.6318V31.8066C9.01465 32.2885 9.20416 32.751 9.54199 33.0918C9.8801 33.4327 10.3392 33.625 10.8174 33.625H32.4521C32.9302 33.6249 33.3885 33.4326 33.7266 33.0918C34.0646 32.751 34.2549 32.2886 34.2549 31.8066V13.6318C34.2549 13.1498 34.0646 12.6875 33.7266 12.3467C33.3885 12.0059 32.9302 11.8145 32.4521 11.8145H10.8174ZM3.60547 17.2666V28.1719H0V17.2666H3.60547ZM43.2695 28.1719H39.6631V17.2666H43.2695V28.1719ZM16.2256 19.9932C16.9428 19.9932 17.6315 20.2807 18.1387 20.792C18.6455 21.3032 18.9307 21.9969 18.9307 22.7197C18.9306 23.4426 18.6457 24.1363 18.1387 24.6475C17.6315 25.1587 16.9428 25.4453 16.2256 25.4453C15.5085 25.4452 14.8205 25.1586 14.3135 24.6475C13.8064 24.1363 13.5216 23.4426 13.5215 22.7197C13.5215 21.9968 13.8065 21.3032 14.3135 20.792C14.8205 20.2808 15.5085 19.9933 16.2256 19.9932ZM27.043 19.9932C27.7602 19.9932 28.4479 20.2807 28.9551 20.792C29.4622 21.3033 29.748 21.9967 29.748 22.7197C29.7479 23.4426 29.4621 24.1363 28.9551 24.6475C28.448 25.1585 27.76 25.4453 27.043 25.4453C26.3259 25.4452 25.6379 25.1586 25.1309 24.6475C24.6238 24.1363 24.339 23.4426 24.3389 22.7197C24.3389 21.9968 24.6239 21.3032 25.1309 20.792C25.6379 20.2808 26.3258 19.9932 27.043 19.9932Z" fill="white"/>
<path d="M21.8438 0.0078125C22.2933 0.0429637 22.7271 0.191225 23.1055 0.438477C23.484 0.685852 23.7953 1.02523 24.0107 1.4248C24.2261 1.82431 24.3389 2.27189 24.3389 2.72656C24.3388 3.53347 23.9909 4.259 23.4375 4.75879V8.17871H32.4521C33.8865 8.17877 35.2621 8.75386 36.2764 9.77637C37.2906 10.7989 37.8604 12.1858 37.8604 13.6318V31.8066C37.8604 33.2527 37.2906 34.6396 36.2764 35.6621C35.2621 36.6846 33.8865 37.2597 32.4521 37.2598H10.8174C9.38292 37.2598 8.00748 36.6847 6.99316 35.6621C5.97888 34.6396 5.4082 33.2527 5.4082 31.8066V13.6318C5.4082 12.1857 5.97884 10.7989 6.99316 9.77637C8.00748 8.7538 9.38292 8.17871 10.8174 8.17871H19.832V4.75879C19.4958 4.45561 19.2397 4.0718 19.0879 3.64355C18.9362 3.21542 18.8935 2.75586 18.9629 2.30664C19.0323 1.85742 19.2116 1.43258 19.4854 1.07129C19.7592 0.709984 20.1186 0.422961 20.5303 0.237305C20.9421 0.051651 21.394 -0.0273118 21.8438 0.0078125ZM10.8174 11.8145C10.3392 11.8145 9.8801 12.0058 9.54199 12.3467C9.20412 12.6875 9.01465 13.15 9.01465 13.6318V31.8066C9.01465 32.2885 9.20416 32.751 9.54199 33.0918C9.8801 33.4327 10.3392 33.625 10.8174 33.625H32.4521C32.9302 33.6249 33.3885 33.4326 33.7266 33.0918C34.0646 32.751 34.2549 32.2886 34.2549 31.8066V13.6318C34.2549 13.1498 34.0646 12.6875 33.7266 12.3467C33.3885 12.0059 32.9302 11.8145 32.4521 11.8145H10.8174ZM3.60547 17.2666V28.1719H0V17.2666H3.60547ZM43.2695 28.1719H39.6631V17.2666H43.2695V28.1719ZM16.2256 19.9932C16.9428 19.9932 17.6315 20.2807 18.1387 20.792C18.6455 21.3032 18.9307 21.9969 18.9307 22.7197C18.9306 23.4426 18.6457 24.1363 18.1387 24.6475C17.6315 25.1587 16.9428 25.4453 16.2256 25.4453C15.5085 25.4452 14.8205 25.1586 14.3135 24.6475C13.8064 24.1363 13.5216 23.4426 13.5215 22.7197C13.5215 21.9968 13.8065 21.3032 14.3135 20.792C14.8205 20.2808 15.5085 19.9933 16.2256 19.9932ZM27.043 19.9932C27.7602 19.9932 28.4479 20.2807 28.9551 20.792C29.4622 21.3033 29.748 21.9967 29.748 22.7197C29.7479 23.4426 29.4621 24.1363 28.9551 24.6475C28.448 25.1585 27.76 25.4453 27.043 25.4453C26.3259 25.4452 25.6379 25.1586 25.1309 24.6475C24.6238 24.1363 24.339 23.4426 24.3389 22.7197C24.3389 21.9968 24.6239 21.3032 25.1309 20.792C25.6379 20.2808 26.3258 19.9932 27.043 19.9932Z" stroke="white"/>
</svg>
