<svg width="32" height="22" viewBox="0 0 32 22" fill="none" xmlns="http://www.w3.org/2000/svg">
<path d="M1.41404 10.4501L0.714587 9.73538L-9.28965e-05 10.4348L0.699359 11.1495L1.41404 10.4501ZM30.9274 11.7679C31.4796 11.7739 31.9321 11.331 31.9381 10.7788C31.944 10.2265 31.5011 9.77401 30.9489 9.76806L30.9381 10.768L30.9274 11.7679ZM11.3614 0.714677L10.6619 -3.20609e-06L0.714587 9.73538L1.41404 10.4501L2.11349 11.1647L12.0608 1.42936L11.3614 0.714677ZM1.41404 10.4501L0.699359 11.1495L10.4347 21.0969L11.1494 20.3974L11.8641 19.6979L2.12872 9.75061L1.41404 10.4501ZM1.41404 10.4501L1.40327 11.45L30.9274 11.7679L30.9381 10.768L30.9489 9.76806L1.42481 9.45012L1.41404 10.4501Z" fill="black"/>
</svg>
