<svg width="44" height="44" viewBox="0 0 44 44" fill="none" xmlns="http://www.w3.org/2000/svg">
<rect width="44" height="44" rx="12" fill="white"/>
<path d="M19.7952 29.5C20.3828 30.0186 21.1547 30.3333 22.0001 30.3333C22.8454 30.3333 23.6173 30.0186 24.2049 29.5M27.0001 18.6667C27.0001 17.3406 26.4733 16.0688 25.5356 15.1311C24.5979 14.1934 23.3261 13.6667 22.0001 13.6667C20.674 13.6667 19.4022 14.1934 18.4645 15.1311C17.5268 16.0688 17.0001 17.3406 17.0001 18.6667C17.0001 21.2418 16.3504 23.005 15.6248 24.1712C15.0127 25.1549 14.7066 25.6468 14.7178 25.784C14.7303 25.9359 14.7624 25.9938 14.8849 26.0846C14.9954 26.1667 15.4939 26.1667 16.4908 26.1667H27.5093C28.5062 26.1667 29.0047 26.1667 29.1152 26.0846C29.2377 25.9938 29.2699 25.9359 29.2823 25.784C29.2935 25.6468 28.9875 25.1549 28.3753 24.1712C27.6497 23.005 27.0001 21.2418 27.0001 18.6667Z" stroke="#667791" stroke-width="1.25" stroke-linecap="round" stroke-linejoin="round"/>
</svg>
