<svg width="16" height="18" viewBox="0 0 16 18" fill="none" xmlns="http://www.w3.org/2000/svg">
<path d="M1.56292 18C1.32569 17.9991 1.09168 17.9451 0.878044 17.842C0.616172 17.7189 0.394627 17.524 0.239186 17.28C0.0837445 17.0359 0.000798964 16.7528 0 16.4634V1.53668C0.00114413 1.33299 0.0425438 1.13154 0.121818 0.943913C0.201093 0.756284 0.316678 0.586178 0.461926 0.443378C0.607174 0.300577 0.77922 0.1879 0.968169 0.111826C1.15712 0.0357521 1.35924 -0.00221779 1.56292 0.000100066H13.8555C14.2623 0.00240502 14.6518 0.165034 14.9395 0.4527C15.2272 0.740366 15.3898 1.12986 15.3921 1.53668V16.4634C15.3864 16.7415 15.3053 17.0128 15.1576 17.2484C15.0098 17.484 14.8008 17.6751 14.553 17.8013C14.3051 17.9274 14.0277 17.984 13.7502 17.9649C13.4728 17.9457 13.2057 17.8517 12.9775 17.6927L7.88483 13.8732C7.84746 13.8433 7.80101 13.827 7.75313 13.827C7.70525 13.827 7.6588 13.8433 7.62142 13.8732L2.48486 17.6927C2.2183 17.891 1.89518 17.9987 1.56292 18ZM1.56292 1.31717C1.5047 1.31717 1.44887 1.34029 1.4077 1.38146C1.36653 1.42263 1.34341 1.47846 1.34341 1.53668V16.4634C1.3431 16.504 1.35454 16.5439 1.37635 16.5782C1.39816 16.6124 1.4294 16.6397 1.46633 16.6566C1.49994 16.6796 1.53974 16.6919 1.58048 16.6919C1.62122 16.6919 1.66101 16.6796 1.69462 16.6566L6.83118 12.8195C7.09828 12.6227 7.42135 12.5165 7.75313 12.5165C8.08491 12.5165 8.40798 12.6227 8.67507 12.8195L13.7677 16.639C13.8013 16.6621 13.8411 16.6744 13.8819 16.6744C13.9226 16.6744 13.9624 16.6621 13.996 16.639C14.0329 16.6221 14.0642 16.5949 14.086 16.5606C14.1078 16.5263 14.1193 16.4865 14.1189 16.4459V1.53668C14.1196 1.50375 14.1129 1.4711 14.0992 1.44114C14.0855 1.41118 14.0653 1.38468 14.04 1.3636C14.0147 1.34252 13.985 1.3274 13.9531 1.31936C13.9211 1.31132 13.8878 1.31057 13.8555 1.31717H1.56292Z" fill="black"/>
</svg>
