<svg width="28" height="28" viewBox="0 0 28 28" fill="none" xmlns="http://www.w3.org/2000/svg">
<path d="M22.9258 7.80208L16.3364 3.19176C14.5403 1.93336 11.7833 2.002 10.0558 3.34048L4.32437 7.81352C3.18037 8.70584 2.27661 10.5362 2.27661 11.9777V19.8713C2.27661 22.7885 4.64469 25.168 7.56189 25.168H19.8942C22.8114 25.168 25.1795 22.7999 25.1795 19.8827V12.1264C25.1795 10.582 24.1842 8.68296 22.9258 7.80208ZM14.5861 20.592C14.5861 21.061 14.1971 21.45 13.7281 21.45C13.259 21.45 12.8701 21.061 12.8701 20.592V17.16C12.8701 16.691 13.259 16.302 13.7281 16.302C14.1971 16.302 14.5861 16.691 14.5861 17.16V20.592Z" fill="#101010"/>
</svg>
