<svg width="15" height="25" viewBox="0 0 15 25" fill="none" xmlns="http://www.w3.org/2000/svg">
<mask id="path-1-inside-1_286_688" fill="white">
<path d="M9.66883 18.2213L13.86 11.4748C13.8737 11.453 13.8852 11.43 13.8941 11.4062C14.6179 10.2247 15 8.87502 15 7.49706C15 3.36318 11.6405 0 7.51104 0C3.38163 0 0.0218041 3.36318 0.0218041 7.49706C0.0218041 8.8753 0.404499 10.2256 1.12879 11.4079C1.13718 11.4286 1.14697 11.4488 1.15871 11.4683L5.1995 18.2381C2.06275 18.6819 0 19.9731 0 21.5394C0 23.4802 3.29441 25 7.49986 25C11.7053 25 14.9997 23.4799 14.9997 21.5394C15 19.9659 12.8411 18.6458 9.66883 18.2213ZM1.8816 11.0298C1.2135 9.9653 0.860433 8.74377 0.860433 7.49706C0.860433 3.82605 3.84372 0.839537 7.51104 0.839537C11.1781 0.839537 14.1614 3.82605 14.1614 7.49706C14.1614 8.74433 13.8083 9.96586 13.1405 11.0298C13.1265 11.0522 13.115 11.0754 13.1058 11.0995L8.67785 18.2263C8.61132 18.3285 8.59818 18.3517 8.51684 18.4855L7.39866 20.2854L1.91906 11.1054C1.90928 11.0794 1.8967 11.0539 1.8816 11.0298ZM7.50014 24.1605C3.57452 24.1605 0.838908 22.7789 0.838908 21.5394C0.838908 20.4145 2.89914 19.3544 5.67025 19.0261L7.03163 21.3072C7.10682 21.4328 7.24156 21.5103 7.38776 21.5114C7.38888 21.5114 7.39028 21.5114 7.3914 21.5114C7.5362 21.5114 7.67094 21.4364 7.74753 21.3133L9.17879 19.0096C11.9941 19.3149 14.1611 20.4019 14.1611 21.5394C14.1614 22.7791 11.4258 24.1605 7.50014 24.1605Z"/>
</mask>
<path d="M9.66883 18.2213L13.86 11.4748C13.8737 11.453 13.8852 11.43 13.8941 11.4062C14.6179 10.2247 15 8.87502 15 7.49706C15 3.36318 11.6405 0 7.51104 0C3.38163 0 0.0218041 3.36318 0.0218041 7.49706C0.0218041 8.8753 0.404499 10.2256 1.12879 11.4079C1.13718 11.4286 1.14697 11.4488 1.15871 11.4683L5.1995 18.2381C2.06275 18.6819 0 19.9731 0 21.5394C0 23.4802 3.29441 25 7.49986 25C11.7053 25 14.9997 23.4799 14.9997 21.5394C15 19.9659 12.8411 18.6458 9.66883 18.2213ZM1.8816 11.0298C1.2135 9.9653 0.860433 8.74377 0.860433 7.49706C0.860433 3.82605 3.84372 0.839537 7.51104 0.839537C11.1781 0.839537 14.1614 3.82605 14.1614 7.49706C14.1614 8.74433 13.8083 9.96586 13.1405 11.0298C13.1265 11.0522 13.115 11.0754 13.1058 11.0995L8.67785 18.2263C8.61132 18.3285 8.59818 18.3517 8.51684 18.4855L7.39866 20.2854L1.91906 11.1054C1.90928 11.0794 1.8967 11.0539 1.8816 11.0298ZM7.50014 24.1605C3.57452 24.1605 0.838908 22.7789 0.838908 21.5394C0.838908 20.4145 2.89914 19.3544 5.67025 19.0261L7.03163 21.3072C7.10682 21.4328 7.24156 21.5103 7.38776 21.5114C7.38888 21.5114 7.39028 21.5114 7.3914 21.5114C7.5362 21.5114 7.67094 21.4364 7.74753 21.3133L9.17879 19.0096C11.9941 19.3149 14.1611 20.4019 14.1611 21.5394C14.1614 22.7791 11.4258 24.1605 7.50014 24.1605Z" fill="#878787"/>
<path d="M9.66883 18.2213L8.8194 17.6936L8.00327 19.0073L9.53619 19.2125L9.66883 18.2213ZM13.86 11.4748L13.013 10.9432L13.0106 10.9471L13.86 11.4748ZM13.8941 11.4062L13.0414 10.8839L12.9916 10.9651L12.9581 11.0542L13.8941 11.4062ZM1.12879 11.4079L2.05568 11.0325L2.02467 10.956L1.98151 10.8855L1.12879 11.4079ZM1.15871 11.4683L2.01738 10.9558L2.01644 10.9543L1.15871 11.4683ZM5.1995 18.2381L5.3396 19.2282L6.82928 19.0174L6.05817 17.7256L5.1995 18.2381ZM14.9997 21.5394L13.9997 21.5393V21.5394H14.9997ZM1.8816 11.0298L2.72875 10.4985L2.72861 10.4982L1.8816 11.0298ZM13.1405 11.0298L12.2935 10.4982L12.2922 10.5002L13.1405 11.0298ZM13.1058 11.0995L13.9552 11.6273L14.0055 11.5464L14.0396 11.4574L13.1058 11.0995ZM8.67785 18.2263L9.51578 18.7721L9.52162 18.7632L9.52726 18.7541L8.67785 18.2263ZM8.51684 18.4855L9.36631 19.0132L9.37125 19.0051L8.51684 18.4855ZM7.39866 20.2854L6.54 20.798L7.38162 22.208L8.2481 20.8131L7.39866 20.2854ZM1.91906 11.1054L0.983022 11.4573L1.01452 11.5411L1.0604 11.6179L1.91906 11.1054ZM5.67025 19.0261L6.52894 18.5136L6.1966 17.9568L5.55262 18.0331L5.67025 19.0261ZM7.03163 21.3072L6.17293 21.8197L6.17355 21.8207L7.03163 21.3072ZM7.38776 21.5114L7.38011 22.5114H7.38776V21.5114ZM7.74753 21.3133L8.59665 21.8415L8.59695 21.841L7.74753 21.3133ZM9.17879 19.0096L9.28661 18.0155L8.66131 17.9476L8.32938 18.4819L9.17879 19.0096ZM14.1611 21.5394H13.1611V21.5397L14.1611 21.5394ZM9.66883 18.2213L10.5183 18.749L14.7095 12.0025L13.86 11.4748L13.0106 10.9471L8.8194 17.6936L9.66883 18.2213ZM13.86 11.4748L14.7071 12.0063C14.7549 11.93 14.7967 11.8471 14.8301 11.7582L13.8941 11.4062L12.9581 11.0542C12.9737 11.0129 12.9925 10.9759 13.013 10.9432L13.86 11.4748ZM13.8941 11.4062L14.7469 11.9286C15.5662 10.591 16 9.06069 16 7.49706H15H14C14 8.68935 13.6695 9.85846 13.0414 10.8839L13.8941 11.4062ZM15 7.49706H16C16 2.81192 12.1938 -1 7.51104 -1V0V1C11.0871 1 14 3.91445 14 7.49706H15ZM7.51104 0V-1C2.82838 -1 -0.978196 2.81187 -0.978196 7.49706H0.0218041H1.0218C1.0218 3.9145 3.93489 1 7.51104 1V0ZM0.0218041 7.49706H-0.978196C-0.978196 9.06121 -0.543722 10.592 0.276075 11.9303L1.12879 11.4079L1.98151 10.8855C1.35272 9.85908 1.0218 8.68939 1.0218 7.49706H0.0218041ZM1.12879 11.4079L0.201914 11.7833C0.227287 11.8459 0.259484 11.9132 0.300968 11.9824L1.15871 11.4683L2.01644 10.9543C2.03445 10.9843 2.04707 11.0113 2.05568 11.0325L1.12879 11.4079ZM1.15871 11.4683L0.300037 11.9809L4.34083 18.7506L5.1995 18.2381L6.05817 17.7256L2.01737 10.9558L1.15871 11.4683ZM5.1995 18.2381L5.0594 17.248C3.40272 17.4824 1.95404 17.9491 0.888988 18.6227C-0.161498 19.287 -1 20.2695 -1 21.5394H0H1C1 21.243 1.19287 20.7968 1.95795 20.313C2.70846 19.8384 3.85953 19.4377 5.3396 19.2282L5.1995 18.2381ZM0 21.5394H-1C-1 23.1257 0.316133 24.2421 1.75394 24.9055C3.26543 25.6029 5.29082 26 7.49986 26V25V24C5.50345 24 3.77892 23.6372 2.59184 23.0895C1.33107 22.5078 1 21.8939 1 21.5394H0ZM7.49986 25V26C9.70893 26 11.7343 25.6028 13.2458 24.9054C14.6836 24.242 15.9997 23.1256 15.9997 21.5394H14.9997H13.9997C13.9997 21.8937 13.6687 22.5076 12.4079 23.0894C11.2208 23.6371 9.49624 24 7.49986 24V25ZM14.9997 21.5394L15.9997 21.5396C15.9999 20.2512 15.1191 19.2611 14.0505 18.5993C12.9588 17.9232 11.4788 17.4546 9.80148 17.2301L9.66883 18.2213L9.53619 19.2125C11.0311 19.4125 12.2167 19.8162 12.9975 20.2997C13.8013 20.7974 13.9998 21.2541 13.9997 21.5393L14.9997 21.5394ZM1.8816 11.0298L2.72861 10.4982C2.15962 9.59165 1.86043 8.55413 1.86043 7.49706H0.860433H-0.139567C-0.139567 8.93342 0.26737 10.3389 1.0346 11.5614L1.8816 11.0298ZM0.860433 7.49706H1.86043C1.86043 4.37734 4.39699 1.83954 7.51104 1.83954V0.839537V-0.160463C3.29044 -0.160463 -0.139567 3.27476 -0.139567 7.49706H0.860433ZM7.51104 0.839537V1.83954C10.6248 1.83954 13.1614 4.37731 13.1614 7.49706H14.1614H15.1614C15.1614 3.27478 11.7314 -0.160463 7.51104 -0.160463V0.839537ZM14.1614 7.49706H13.1614C13.1614 8.55478 12.8621 9.59227 12.2935 10.4982L13.1405 11.0298L13.9875 11.5615C14.7545 10.3394 15.1614 8.93388 15.1614 7.49706H14.1614ZM13.1405 11.0298L12.2922 10.5002C12.2434 10.5784 12.2036 10.6593 12.1721 10.7416L13.1058 11.0995L14.0396 11.4574C14.0265 11.4916 14.0096 11.526 13.9887 11.5594L13.1405 11.0298ZM13.1058 11.0995L12.2564 10.5718L7.82845 17.6986L8.67785 18.2263L9.52726 18.7541L13.9552 11.6273L13.1058 11.0995ZM8.67785 18.2263L7.83993 17.6806C7.76307 17.7986 7.74088 17.8369 7.66242 17.9659L8.51684 18.4855L9.37125 19.0051C9.45549 18.8666 9.45958 18.8584 9.51578 18.7721L8.67785 18.2263ZM8.51684 18.4855L7.6674 17.9578L6.54923 19.7578L7.39866 20.2854L8.2481 20.8131L9.36628 19.0132L8.51684 18.4855ZM7.39866 20.2854L8.25733 19.7729L2.77773 10.5929L1.91906 11.1054L1.0604 11.6179L6.54 20.798L7.39866 20.2854ZM1.91906 11.1054L2.8551 10.7535C2.82177 10.6648 2.77941 10.5792 2.72875 10.4985L1.8816 11.0298L1.03445 11.5612C1.01398 11.5286 0.996786 11.4939 0.983022 11.4573L1.91906 11.1054ZM7.50014 24.1605V23.1605C5.64462 23.1605 4.11706 22.8325 3.0893 22.3947C2.57232 22.1745 2.22254 21.9439 2.01871 21.749C1.80502 21.5447 1.83891 21.4697 1.83891 21.5394H0.838908H-0.161092C-0.161092 22.2289 0.214745 22.7913 0.636656 23.1947C1.06843 23.6075 1.6479 23.9546 2.30553 24.2348C3.62698 24.7976 5.43004 25.1605 7.50014 25.1605V24.1605ZM0.838908 21.5394H1.83891C1.83891 21.5796 1.8186 21.5304 1.9474 21.3873C2.07779 21.2424 2.31133 21.0607 2.67572 20.8718C3.40196 20.4952 4.48565 20.1735 5.78789 20.0192L5.67025 19.0261L5.55262 18.0331C4.08374 18.2071 2.75176 18.5795 1.7551 19.0963C1.25805 19.354 0.80334 19.6688 0.460834 20.0493C0.116751 20.4316 -0.161092 20.9368 -0.161092 21.5394H0.838908ZM5.67025 19.0261L4.81156 19.5386L6.17293 21.8197L7.03163 21.3072L7.89032 20.7947L6.52894 18.5136L5.67025 19.0261ZM7.03163 21.3072L6.17355 21.8207C6.4267 22.2437 6.88259 22.5076 7.38011 22.5114L7.38776 21.5114L7.39542 20.5115C7.60054 20.513 7.78694 20.6219 7.8897 20.7936L7.03163 21.3072ZM7.38776 21.5114V22.5114C7.38776 22.5114 7.38777 22.5114 7.38777 22.5114C7.38777 22.5114 7.38777 22.5114 7.38778 22.5114C7.38778 22.5114 7.38778 22.5114 7.38778 22.5114C7.38778 22.5114 7.38779 22.5114 7.38779 22.5114C7.38779 22.5114 7.38779 22.5114 7.3878 22.5114C7.3878 22.5114 7.3878 22.5114 7.3878 22.5114C7.3878 22.5114 7.38781 22.5114 7.38781 22.5114C7.38781 22.5114 7.38781 22.5114 7.38781 22.5114C7.38782 22.5114 7.38782 22.5114 7.38782 22.5114C7.38782 22.5114 7.38783 22.5114 7.38783 22.5114C7.38783 22.5114 7.38783 22.5114 7.38784 22.5114C7.38784 22.5114 7.38784 22.5114 7.38784 22.5114C7.38784 22.5114 7.38785 22.5114 7.38785 22.5114C7.38785 22.5114 7.38785 22.5114 7.38786 22.5114C7.38786 22.5114 7.38786 22.5114 7.38786 22.5114C7.38786 22.5114 7.38787 22.5114 7.38787 22.5114C7.38787 22.5114 7.38787 22.5114 7.38788 22.5114C7.38788 22.5114 7.38788 22.5114 7.38788 22.5114C7.38788 22.5114 7.38789 22.5114 7.38789 22.5114C7.38789 22.5114 7.38789 22.5114 7.3879 22.5114C7.3879 22.5114 7.3879 22.5114 7.3879 22.5114C7.3879 22.5114 7.38791 22.5114 7.38791 22.5114C7.38791 22.5114 7.38791 22.5114 7.38792 22.5114C7.38792 22.5114 7.38792 22.5114 7.38792 22.5114C7.38792 22.5114 7.38793 22.5114 7.38793 22.5114C7.38793 22.5114 7.38793 22.5114 7.38794 22.5114C7.38794 22.5114 7.38794 22.5114 7.38794 22.5114C7.38794 22.5114 7.38795 22.5114 7.38795 22.5114C7.38795 22.5114 7.38795 22.5114 7.38796 22.5114C7.38796 22.5114 7.38796 22.5114 7.38796 22.5114C7.38796 22.5114 7.38797 22.5114 7.38797 22.5114C7.38797 22.5114 7.38797 22.5114 7.38798 22.5114C7.38798 22.5114 7.38798 22.5114 7.38798 22.5114C7.38798 22.5114 7.38799 22.5114 7.38799 22.5114C7.38799 22.5114 7.38799 22.5114 7.388 22.5114C7.388 22.5114 7.388 22.5114 7.388 22.5114C7.388 22.5114 7.38801 22.5114 7.38801 22.5114C7.38801 22.5114 7.38801 22.5114 7.38802 22.5114C7.38802 22.5114 7.38802 22.5114 7.38802 22.5114C7.38802 22.5114 7.38803 22.5114 7.38803 22.5114C7.38803 22.5114 7.38803 22.5114 7.38804 22.5114C7.38804 22.5114 7.38804 22.5114 7.38804 22.5114C7.38805 22.5114 7.38805 22.5114 7.38805 22.5114C7.38805 22.5114 7.38805 22.5114 7.38806 22.5114C7.38806 22.5114 7.38806 22.5114 7.38806 22.5114C7.38807 22.5114 7.38807 22.5114 7.38807 22.5114C7.38807 22.5114 7.38807 22.5114 7.38808 22.5114C7.38808 22.5114 7.38808 22.5114 7.38808 22.5114C7.38809 22.5114 7.38809 22.5114 7.38809 22.5114C7.38809 22.5114 7.3881 22.5114 7.3881 22.5114C7.3881 22.5114 7.3881 22.5114 7.3881 22.5114C7.38811 22.5114 7.38811 22.5114 7.38811 22.5114C7.38811 22.5114 7.38812 22.5114 7.38812 22.5114C7.38812 22.5114 7.38812 22.5114 7.38812 22.5114C7.38813 22.5114 7.38813 22.5114 7.38813 22.5114C7.38813 22.5114 7.38814 22.5114 7.38814 22.5114C7.38814 22.5114 7.38814 22.5114 7.38815 22.5114C7.38815 22.5114 7.38815 22.5114 7.38815 22.5114C7.38815 22.5114 7.38816 22.5114 7.38816 22.5114C7.38816 22.5114 7.38816 22.5114 7.38817 22.5114C7.38817 22.5114 7.38817 22.5114 7.38817 22.5114C7.38818 22.5114 7.38818 22.5114 7.38818 22.5114C7.38818 22.5114 7.38818 22.5114 7.38819 22.5114C7.38819 22.5114 7.38819 22.5114 7.38819 22.5114C7.3882 22.5114 7.3882 22.5114 7.3882 22.5114C7.3882 22.5114 7.38821 22.5114 7.38821 22.5114C7.38821 22.5114 7.38821 22.5114 7.38821 22.5114C7.38822 22.5114 7.38822 22.5114 7.38822 22.5114C7.38822 22.5114 7.38823 22.5114 7.38823 22.5114C7.38823 22.5114 7.38823 22.5114 7.38824 22.5114C7.38824 22.5114 7.38824 22.5114 7.38824 22.5114C7.38824 22.5114 7.38825 22.5114 7.38825 22.5114C7.38825 22.5114 7.38825 22.5114 7.38826 22.5114C7.38826 22.5114 7.38826 22.5114 7.38826 22.5114C7.38827 22.5114 7.38827 22.5114 7.38827 22.5114C7.38827 22.5114 7.38827 22.5114 7.38828 22.5114C7.38828 22.5114 7.38828 22.5114 7.38828 22.5114C7.38829 22.5114 7.38829 22.5114 7.38829 22.5114C7.38829 22.5114 7.3883 22.5114 7.3883 22.5114C7.3883 22.5114 7.3883 22.5114 7.38831 22.5114C7.38831 22.5114 7.38831 22.5114 7.38831 22.5114C7.38831 22.5114 7.38832 22.5114 7.38832 22.5114C7.38832 22.5114 7.38832 22.5114 7.38833 22.5114C7.38833 22.5114 7.38833 22.5114 7.38833 22.5114C7.38834 22.5114 7.38834 22.5114 7.38834 22.5114C7.38834 22.5114 7.38834 22.5114 7.38835 22.5114C7.38835 22.5114 7.38835 22.5114 7.38835 22.5114C7.38836 22.5114 7.38836 22.5114 7.38836 22.5114C7.38836 22.5114 7.38837 22.5114 7.38837 22.5114C7.38837 22.5114 7.38837 22.5114 7.38838 22.5114C7.38838 22.5114 7.38838 22.5114 7.38838 22.5114C7.38838 22.5114 7.38839 22.5114 7.38839 22.5114C7.38839 22.5114 7.38839 22.5114 7.3884 22.5114C7.3884 22.5114 7.3884 22.5114 7.3884 22.5114C7.38841 22.5114 7.38841 22.5114 7.38841 22.5114C7.38841 22.5114 7.38841 22.5114 7.38842 22.5114C7.38842 22.5114 7.38842 22.5114 7.38842 22.5114C7.38843 22.5114 7.38843 22.5114 7.38843 22.5114C7.38843 22.5114 7.38844 22.5114 7.38844 22.5114C7.38844 22.5114 7.38844 22.5114 7.38845 22.5114C7.38845 22.5114 7.38845 22.5114 7.38845 22.5114C7.38845 22.5114 7.38846 22.5114 7.38846 22.5114C7.38846 22.5114 7.38846 22.5114 7.38847 22.5114C7.38847 22.5114 7.38847 22.5114 7.38847 22.5114C7.38848 22.5114 7.38848 22.5114 7.38848 22.5114C7.38848 22.5114 7.38849 22.5114 7.38849 22.5114C7.38849 22.5114 7.38849 22.5114 7.38849 22.5114C7.3885 22.5114 7.3885 22.5114 7.3885 22.5114C7.3885 22.5114 7.38851 22.5114 7.38851 22.5114C7.38851 22.5114 7.38851 22.5114 7.38852 22.5114C7.38852 22.5114 7.38852 22.5114 7.38852 22.5114C7.38853 22.5114 7.38853 22.5114 7.38853 22.5114C7.38853 22.5114 7.38854 22.5114 7.38854 22.5114C7.38854 22.5114 7.38854 22.5114 7.38855 22.5114C7.38855 22.5114 7.38855 22.5114 7.38855 22.5114C7.38855 22.5114 7.38856 22.5114 7.38856 22.5114C7.38856 22.5114 7.38856 22.5114 7.38857 22.5114C7.38857 22.5114 7.38857 22.5114 7.38857 22.5114C7.38858 22.5114 7.38858 22.5114 7.38858 22.5114C7.38858 22.5114 7.38859 22.5114 7.38859 22.5114C7.38859 22.5114 7.38859 22.5114 7.38859 22.5114C7.3886 22.5114 7.3886 22.5114 7.3886 22.5114C7.3886 22.5114 7.38861 22.5114 7.38861 22.5114C7.38861 22.5114 7.38861 22.5114 7.38862 22.5114C7.38862 22.5114 7.38862 22.5114 7.38862 22.5114C7.38863 22.5114 7.38863 22.5114 7.38863 22.5114C7.38863 22.5114 7.38864 22.5114 7.38864 22.5114C7.38864 22.5114 7.38864 22.5114 7.38864 22.5114C7.38865 22.5114 7.38865 22.5114 7.38865 22.5114C7.38865 22.5114 7.38866 22.5114 7.38866 22.5114C7.38866 22.5114 7.38866 22.5114 7.38867 22.5114C7.38867 22.5114 7.38867 22.5114 7.38867 22.5114C7.38868 22.5114 7.38868 22.5114 7.38868 22.5114C7.38868 22.5114 7.38869 22.5114 7.38869 22.5114C7.38869 22.5114 7.38869 22.5114 7.3887 22.5114C7.3887 22.5114 7.3887 22.5114 7.3887 22.5114C7.3887 22.5114 7.38871 22.5114 7.38871 22.5114C7.38871 22.5114 7.38871 22.5114 7.38872 22.5114C7.38872 22.5114 7.38872 22.5114 7.38872 22.5114C7.38873 22.5114 7.38873 22.5114 7.38873 22.5114C7.38873 22.5114 7.38874 22.5114 7.38874 22.5114C7.38874 22.5114 7.38874 22.5114 7.38875 22.5114C7.38875 22.5114 7.38875 22.5114 7.38875 22.5114C7.38876 22.5114 7.38876 22.5114 7.38876 22.5114C7.38876 22.5114 7.38876 22.5114 7.38877 22.5114C7.38877 22.5114 7.38877 22.5114 7.38877 22.5114C7.38878 22.5114 7.38878 22.5114 7.38878 22.5114C7.38878 22.5114 7.38879 22.5114 7.38879 22.5114C7.38879 22.5114 7.38879 22.5114 7.3888 22.5114C7.3888 22.5114 7.3888 22.5114 7.3888 22.5114C7.38881 22.5114 7.38881 22.5114 7.38881 22.5114C7.38881 22.5114 7.38882 22.5114 7.38882 22.5114C7.38882 22.5114 7.38882 22.5114 7.38882 22.5114C7.38883 22.5114 7.38883 22.5114 7.38883 22.5114C7.38883 22.5114 7.38884 22.5114 7.38884 22.5114C7.38884 22.5114 7.38884 22.5114 7.38885 22.5114C7.38885 22.5114 7.38885 22.5114 7.38885 22.5114C7.38886 22.5114 7.38886 22.5114 7.38886 22.5114C7.38886 22.5114 7.38887 22.5114 7.38887 22.5114C7.38887 22.5114 7.38887 22.5114 7.38888 22.5114C7.38888 22.5114 7.38888 22.5114 7.38888 22.5114C7.38889 22.5114 7.38889 22.5114 7.38889 22.5114C7.38889 22.5114 7.3889 22.5114 7.3889 22.5114C7.3889 22.5114 7.3889 22.5114 7.3889 22.5114C7.38891 22.5114 7.38891 22.5114 7.38891 22.5114C7.38891 22.5114 7.38892 22.5114 7.38892 22.5114C7.38892 22.5114 7.38892 22.5114 7.38893 22.5114C7.38893 22.5114 7.38893 22.5114 7.38893 22.5114C7.38894 22.5114 7.38894 22.5114 7.38894 22.5114C7.38894 22.5114 7.38895 22.5114 7.38895 22.5114C7.38895 22.5114 7.38895 22.5114 7.38896 22.5114C7.38896 22.5114 7.38896 22.5114 7.38896 22.5114C7.38897 22.5114 7.38897 22.5114 7.38897 22.5114C7.38897 22.5114 7.38898 22.5114 7.38898 22.5114C7.38898 22.5114 7.38898 22.5114 7.38898 22.5114C7.38899 22.5114 7.38899 22.5114 7.38899 22.5114C7.38899 22.5114 7.389 22.5114 7.389 22.5114C7.389 22.5114 7.389 22.5114 7.38901 22.5114C7.38901 22.5114 7.38901 22.5114 7.38901 22.5114C7.38902 22.5114 7.38902 22.5114 7.38902 22.5114C7.38902 22.5114 7.38903 22.5114 7.38903 22.5114C7.38903 22.5114 7.38903 22.5114 7.38904 22.5114C7.38904 22.5114 7.38904 22.5114 7.38904 22.5114C7.38905 22.5114 7.38905 22.5114 7.38905 22.5114C7.38905 22.5114 7.38906 22.5114 7.38906 22.5114C7.38906 22.5114 7.38906 22.5114 7.38907 22.5114C7.38907 22.5114 7.38907 22.5114 7.38907 22.5114C7.38907 22.5114 7.38908 22.5114 7.38908 22.5114C7.38908 22.5114 7.38908 22.5114 7.38909 22.5114C7.38909 22.5114 7.38909 22.5114 7.38909 22.5114C7.3891 22.5114 7.3891 22.5114 7.3891 22.5114C7.3891 22.5114 7.38911 22.5114 7.38911 22.5114C7.38911 22.5114 7.38911 22.5114 7.38912 22.5114C7.38912 22.5114 7.38912 22.5114 7.38912 22.5114C7.38913 22.5114 7.38913 22.5114 7.38913 22.5114C7.38913 22.5114 7.38914 22.5114 7.38914 22.5114C7.38914 22.5114 7.38914 22.5114 7.38915 22.5114C7.38915 22.5114 7.38915 22.5114 7.38915 22.5114C7.38916 22.5114 7.38916 22.5114 7.38916 22.5114C7.38916 22.5114 7.38917 22.5114 7.38917 22.5114C7.38917 22.5114 7.38917 22.5114 7.38917 22.5114C7.38918 22.5114 7.38918 22.5114 7.38918 22.5114C7.38918 22.5114 7.38919 22.5114 7.38919 22.5114C7.38919 22.5114 7.38919 22.5114 7.3892 22.5114C7.3892 22.5114 7.3892 22.5114 7.3892 22.5114C7.38921 22.5114 7.38921 22.5114 7.38921 22.5114C7.38921 22.5114 7.38922 22.5114 7.38922 22.5114C7.38922 22.5114 7.38922 22.5114 7.38923 22.5114C7.38923 22.5114 7.38923 22.5114 7.38923 22.5114C7.38924 22.5114 7.38924 22.5114 7.38924 22.5114C7.38924 22.5114 7.38925 22.5114 7.38925 22.5114C7.38925 22.5114 7.38925 22.5114 7.38926 22.5114C7.38926 22.5114 7.38926 22.5114 7.38926 22.5114C7.38927 22.5114 7.38927 22.5114 7.38927 22.5114C7.38927 22.5114 7.38928 22.5114 7.38928 22.5114C7.38928 22.5114 7.38928 22.5114 7.38929 22.5114C7.38929 22.5114 7.38929 22.5114 7.38929 22.5114C7.3893 22.5114 7.3893 22.5114 7.3893 22.5114C7.3893 22.5114 7.3893 22.5114 7.38931 22.5114C7.38931 22.5114 7.38931 22.5114 7.38931 22.5114C7.38932 22.5114 7.38932 22.5114 7.38932 22.5114C7.38932 22.5114 7.38933 22.5114 7.38933 22.5114C7.38933 22.5114 7.38933 22.5114 7.38934 22.5114C7.38934 22.5114 7.38934 22.5114 7.38934 22.5114C7.38935 22.5114 7.38935 22.5114 7.38935 22.5114C7.38935 22.5114 7.38936 22.5114 7.38936 22.5114C7.38936 22.5114 7.38936 22.5114 7.38937 22.5114C7.38937 22.5114 7.38937 22.5114 7.38937 22.5114C7.38938 22.5114 7.38938 22.5114 7.38938 22.5114C7.38938 22.5114 7.38939 22.5114 7.38939 22.5114C7.38939 22.5114 7.38939 22.5114 7.3894 22.5114C7.3894 22.5114 7.3894 22.5114 7.3894 22.5114C7.38941 22.5114 7.38941 22.5114 7.38941 22.5114C7.38941 22.5114 7.38942 22.5114 7.38942 22.5114C7.38942 22.5114 7.38942 22.5114 7.38942 22.5114C7.38943 22.5114 7.38943 22.5114 7.38943 22.5114C7.38943 22.5114 7.38944 22.5114 7.38944 22.5114C7.38944 22.5114 7.38944 22.5114 7.38945 22.5114C7.38945 22.5114 7.38945 22.5114 7.38945 22.5114C7.38946 22.5114 7.38946 22.5114 7.38946 22.5114C7.38946 22.5114 7.38947 22.5114 7.38947 22.5114C7.38947 22.5114 7.38947 22.5114 7.38948 22.5114C7.38948 22.5114 7.38948 22.5114 7.38948 22.5114C7.38949 22.5114 7.38949 22.5114 7.38949 22.5114C7.38949 22.5114 7.3895 22.5114 7.3895 22.5114C7.3895 22.5114 7.3895 22.5114 7.38951 22.5114C7.38951 22.5114 7.38951 22.5114 7.38951 22.5114C7.38952 22.5114 7.38952 22.5114 7.38952 22.5114C7.38952 22.5114 7.38953 22.5114 7.38953 22.5114C7.38953 22.5114 7.38953 22.5114 7.38954 22.5114C7.38954 22.5114 7.38954 22.5114 7.38954 22.5114C7.38955 22.5114 7.38955 22.5114 7.38955 22.5114C7.38955 22.5114 7.38955 22.5114 7.38956 22.5114C7.38956 22.5114 7.38956 22.5114 7.38956 22.5114C7.38957 22.5114 7.38957 22.5114 7.38957 22.5114C7.38958 22.5114 7.38958 22.5114 7.38958 22.5114C7.38958 22.5114 7.38958 22.5114 7.38959 22.5114C7.38959 22.5114 7.38959 22.5114 7.38959 22.5114C7.3896 22.5114 7.3896 22.5114 7.3896 22.5114C7.3896 22.5114 7.38961 22.5114 7.38961 22.5114C7.38961 22.5114 7.38961 22.5114 7.38962 22.5114C7.38962 22.5114 7.38962 22.5114 7.38962 22.5114C7.38963 22.5114 7.38963 22.5114 7.38963 22.5114C7.38963 22.5114 7.38964 22.5114 7.38964 22.5114C7.38964 22.5114 7.38964 22.5114 7.38965 22.5114C7.38965 22.5114 7.38965 22.5114 7.38965 22.5114C7.38966 22.5114 7.38966 22.5114 7.38966 22.5114C7.38966 22.5114 7.38967 22.5114 7.38967 22.5114C7.38967 22.5114 7.38967 22.5114 7.38968 22.5114C7.38968 22.5114 7.38968 22.5114 7.38968 22.5114C7.38969 22.5114 7.38969 22.5114 7.38969 22.5114C7.38969 22.5114 7.3897 22.5114 7.3897 22.5114C7.3897 22.5114 7.3897 22.5114 7.38971 22.5114C7.38971 22.5114 7.38971 22.5114 7.38971 22.5114C7.38971 22.5114 7.38972 22.5114 7.38972 22.5114C7.38972 22.5114 7.38972 22.5114 7.38973 22.5114C7.38973 22.5114 7.38973 22.5114 7.38973 22.5114C7.38974 22.5114 7.38974 22.5114 7.38974 22.5114C7.38974 22.5114 7.38975 22.5114 7.38975 22.5114C7.38975 22.5114 7.38975 22.5114 7.38976 22.5114C7.38976 22.5114 7.38976 22.5114 7.38976 22.5114C7.38977 22.5114 7.38977 22.5114 7.38977 22.5114C7.38977 22.5114 7.38978 22.5114 7.38978 22.5114C7.38978 22.5114 7.38978 22.5114 7.38979 22.5114C7.38979 22.5114 7.38979 22.5114 7.38979 22.5114C7.3898 22.5114 7.3898 22.5114 7.3898 22.5114C7.3898 22.5114 7.38981 22.5114 7.38981 22.5114C7.38981 22.5114 7.38981 22.5114 7.38982 22.5114C7.38982 22.5114 7.38982 22.5114 7.38982 22.5114C7.38983 22.5114 7.38983 22.5114 7.38983 22.5114C7.38983 22.5114 7.38983 22.5114 7.38984 22.5114C7.38984 22.5114 7.38984 22.5114 7.38984 22.5114C7.38985 22.5114 7.38985 22.5114 7.38985 22.5114C7.38985 22.5114 7.38986 22.5114 7.38986 22.5114C7.38986 22.5114 7.38986 22.5114 7.38987 22.5114C7.38987 22.5114 7.38987 22.5114 7.38987 22.5114C7.38988 22.5114 7.38988 22.5114 7.38988 22.5114C7.38988 22.5114 7.38989 22.5114 7.38989 22.5114C7.38989 22.5114 7.38989 22.5114 7.3899 22.5114C7.3899 22.5114 7.3899 22.5114 7.3899 22.5114C7.38991 22.5114 7.38991 22.5114 7.38991 22.5114C7.38991 22.5114 7.38992 22.5114 7.38992 22.5114C7.38992 22.5114 7.38992 22.5114 7.38993 22.5114C7.38993 22.5114 7.38993 22.5114 7.38993 22.5114C7.38994 22.5114 7.38994 22.5114 7.38994 22.5114C7.38994 22.5114 7.38995 22.5114 7.38995 22.5114C7.38995 22.5114 7.38995 22.5114 7.38996 22.5114C7.38996 22.5114 7.38996 22.5114 7.38996 22.5114C7.38997 22.5114 7.38997 22.5114 7.38997 22.5114C7.38997 22.5114 7.38997 22.5114 7.38998 22.5114C7.38998 22.5114 7.38998 22.5114 7.38998 22.5114C7.38999 22.5114 7.38999 22.5114 7.38999 22.5114C7.38999 22.5114 7.39 22.5114 7.39 22.5114C7.39 22.5114 7.39 22.5114 7.39001 22.5114C7.39001 22.5114 7.39001 22.5114 7.39001 22.5114C7.39002 22.5114 7.39002 22.5114 7.39002 22.5114C7.39002 22.5114 7.39003 22.5114 7.39003 22.5114C7.39003 22.5114 7.39003 22.5114 7.39004 22.5114C7.39004 22.5114 7.39004 22.5114 7.39004 22.5114C7.39005 22.5114 7.39005 22.5114 7.39005 22.5114C7.39005 22.5114 7.39006 22.5114 7.39006 22.5114C7.39006 22.5114 7.39006 22.5114 7.39007 22.5114C7.39007 22.5114 7.39007 22.5114 7.39007 22.5114C7.39007 22.5114 7.39008 22.5114 7.39008 22.5114C7.39008 22.5114 7.39008 22.5114 7.39009 22.5114C7.39009 22.5114 7.39009 22.5114 7.39009 22.5114C7.3901 22.5114 7.3901 22.5114 7.3901 22.5114C7.3901 22.5114 7.39011 22.5114 7.39011 22.5114C7.39011 22.5114 7.39011 22.5114 7.39012 22.5114C7.39012 22.5114 7.39012 22.5114 7.39012 22.5114C7.39013 22.5114 7.39013 22.5114 7.39013 22.5114C7.39013 22.5114 7.39014 22.5114 7.39014 22.5114C7.39014 22.5114 7.39014 22.5114 7.39015 22.5114C7.39015 22.5114 7.39015 22.5114 7.39015 22.5114C7.39016 22.5114 7.39016 22.5114 7.39016 22.5114C7.39016 22.5114 7.39016 22.5114 7.39017 22.5114C7.39017 22.5114 7.39017 22.5114 7.39017 22.5114C7.39018 22.5114 7.39018 22.5114 7.39018 22.5114C7.39018 22.5114 7.39019 22.5114 7.39019 22.5114C7.39019 22.5114 7.39019 22.5114 7.3902 22.5114C7.3902 22.5114 7.3902 22.5114 7.3902 22.5114C7.39021 22.5114 7.39021 22.5114 7.39021 22.5114C7.39021 22.5114 7.39022 22.5114 7.39022 22.5114C7.39022 22.5114 7.39022 22.5114 7.39023 22.5114C7.39023 22.5114 7.39023 22.5114 7.39023 22.5114C7.39024 22.5114 7.39024 22.5114 7.39024 22.5114C7.39024 22.5114 7.39024 22.5114 7.39025 22.5114C7.39025 22.5114 7.39025 22.5114 7.39025 22.5114C7.39026 22.5114 7.39026 22.5114 7.39026 22.5114C7.39026 22.5114 7.39027 22.5114 7.39027 22.5114C7.39027 22.5114 7.39027 22.5114 7.39028 22.5114C7.39028 22.5114 7.39028 22.5114 7.39028 22.5114C7.39029 22.5114 7.39029 22.5114 7.39029 22.5114C7.39029 22.5114 7.3903 22.5114 7.3903 22.5114C7.3903 22.5114 7.3903 22.5114 7.39031 22.5114C7.39031 22.5114 7.39031 22.5114 7.39031 22.5114C7.39032 22.5114 7.39032 22.5114 7.39032 22.5114C7.39032 22.5114 7.39032 22.5114 7.39033 22.5114C7.39033 22.5114 7.39033 22.5114 7.39033 22.5114C7.39034 22.5114 7.39034 22.5114 7.39034 22.5114C7.39034 22.5114 7.39035 22.5114 7.39035 22.5114C7.39035 22.5114 7.39035 22.5114 7.39036 22.5114C7.39036 22.5114 7.39036 22.5114 7.39036 22.5114C7.39037 22.5114 7.39037 22.5114 7.39037 22.5114C7.39037 22.5114 7.39038 22.5114 7.39038 22.5114C7.39038 22.5114 7.39038 22.5114 7.39039 22.5114C7.39039 22.5114 7.39039 22.5114 7.39039 22.5114C7.39039 22.5114 7.3904 22.5114 7.3904 22.5114C7.3904 22.5114 7.3904 22.5114 7.39041 22.5114C7.39041 22.5114 7.39041 22.5114 7.39041 22.5114C7.39042 22.5114 7.39042 22.5114 7.39042 22.5114C7.39042 22.5114 7.39043 22.5114 7.39043 22.5114C7.39043 22.5114 7.39043 22.5114 7.39044 22.5114C7.39044 22.5114 7.39044 22.5114 7.39044 22.5114C7.39045 22.5114 7.39045 22.5114 7.39045 22.5114C7.39045 22.5114 7.39045 22.5114 7.39046 22.5114C7.39046 22.5114 7.39046 22.5114 7.39046 22.5114C7.39047 22.5114 7.39047 22.5114 7.39047 22.5114C7.39047 22.5114 7.39048 22.5114 7.39048 22.5114C7.39048 22.5114 7.39048 22.5114 7.39049 22.5114C7.39049 22.5114 7.39049 22.5114 7.39049 22.5114C7.3905 22.5114 7.3905 22.5114 7.3905 22.5114C7.3905 22.5114 7.3905 22.5114 7.39051 22.5114C7.39051 22.5114 7.39051 22.5114 7.39051 22.5114C7.39052 22.5114 7.39052 22.5114 7.39052 22.5114C7.39052 22.5114 7.39053 22.5114 7.39053 22.5114C7.39053 22.5114 7.39053 22.5114 7.39054 22.5114C7.39054 22.5114 7.39054 22.5114 7.39054 22.5114C7.39055 22.5114 7.39055 22.5114 7.39055 22.5114C7.39055 22.5114 7.39055 22.5114 7.39056 22.5114C7.39056 22.5114 7.39056 22.5114 7.39056 22.5114C7.39057 22.5114 7.39057 22.5114 7.39057 22.5114C7.39057 22.5114 7.39058 22.5114 7.39058 22.5114C7.39058 22.5114 7.39058 22.5114 7.39059 22.5114C7.39059 22.5114 7.39059 22.5114 7.39059 22.5114C7.3906 22.5114 7.3906 22.5114 7.3906 22.5114C7.3906 22.5114 7.3906 22.5114 7.39061 22.5114C7.39061 22.5114 7.39061 22.5114 7.39061 22.5114C7.39062 22.5114 7.39062 22.5114 7.39062 22.5114C7.39062 22.5114 7.39063 22.5114 7.39063 22.5114C7.39063 22.5114 7.39063 22.5114 7.39064 22.5114C7.39064 22.5114 7.39064 22.5114 7.39064 22.5114C7.39065 22.5114 7.39065 22.5114 7.39065 22.5114C7.39065 22.5114 7.39065 22.5114 7.39066 22.5114C7.39066 22.5114 7.39066 22.5114 7.39066 22.5114C7.39067 22.5114 7.39067 22.5114 7.39067 22.5114C7.39067 22.5114 7.39068 22.5114 7.39068 22.5114C7.39068 22.5114 7.39068 22.5114 7.39069 22.5114C7.39069 22.5114 7.39069 22.5114 7.39069 22.5114C7.3907 22.5114 7.3907 22.5114 7.3907 22.5114C7.3907 22.5114 7.3907 22.5114 7.39071 22.5114C7.39071 22.5114 7.39071 22.5114 7.39071 22.5114C7.39072 22.5114 7.39072 22.5114 7.39072 22.5114C7.39072 22.5114 7.39073 22.5114 7.39073 22.5114C7.39073 22.5114 7.39073 22.5114 7.39074 22.5114C7.39074 22.5114 7.39074 22.5114 7.39074 22.5114C7.39074 22.5114 7.39075 22.5114 7.39075 22.5114C7.39075 22.5114 7.39075 22.5114 7.39076 22.5114C7.39076 22.5114 7.39076 22.5114 7.39076 22.5114C7.39077 22.5114 7.39077 22.5114 7.39077 22.5114C7.39077 22.5114 7.39077 22.5114 7.39078 22.5114C7.39078 22.5114 7.39078 22.5114 7.39078 22.5114C7.39079 22.5114 7.39079 22.5114 7.39079 22.5114C7.39079 22.5114 7.3908 22.5114 7.3908 22.5114C7.3908 22.5114 7.3908 22.5114 7.39081 22.5114C7.39081 22.5114 7.39081 22.5114 7.39081 22.5114C7.39081 22.5114 7.39082 22.5114 7.39082 22.5114C7.39082 22.5114 7.39082 22.5114 7.39083 22.5114C7.39083 22.5114 7.39083 22.5114 7.39083 22.5114C7.39084 22.5114 7.39084 22.5114 7.39084 22.5114C7.39084 22.5114 7.39084 22.5114 7.39085 22.5114C7.39085 22.5114 7.39085 22.5114 7.39085 22.5114C7.39086 22.5114 7.39086 22.5114 7.39086 22.5114C7.39086 22.5114 7.39087 22.5114 7.39087 22.5114C7.39087 22.5114 7.39087 22.5114 7.39088 22.5114C7.39088 22.5114 7.39088 22.5114 7.39088 22.5114C7.39088 22.5114 7.39089 22.5114 7.39089 22.5114C7.39089 22.5114 7.39089 22.5114 7.3909 22.5114C7.3909 22.5114 7.3909 22.5114 7.3909 22.5114C7.39091 22.5114 7.39091 22.5114 7.39091 22.5114C7.39091 22.5114 7.39091 22.5114 7.39092 22.5114C7.39092 22.5114 7.39092 22.5114 7.39092 22.5114C7.39093 22.5114 7.39093 22.5114 7.39093 22.5114C7.39093 22.5114 7.39094 22.5114 7.39094 22.5114C7.39094 22.5114 7.39094 22.5114 7.39094 22.5114C7.39095 22.5114 7.39095 22.5114 7.39095 22.5114C7.39095 22.5114 7.39096 22.5114 7.39096 22.5114C7.39096 22.5114 7.39096 22.5114 7.39097 22.5114C7.39097 22.5114 7.39097 22.5114 7.39097 22.5114C7.39097 22.5114 7.39098 22.5114 7.39098 22.5114C7.39098 22.5114 7.39098 22.5114 7.39099 22.5114C7.39099 22.5114 7.39099 22.5114 7.39099 22.5114C7.391 22.5114 7.391 22.5114 7.391 22.5114C7.391 22.5114 7.391 22.5114 7.39101 22.5114C7.39101 22.5114 7.39101 22.5114 7.39101 22.5114C7.39102 22.5114 7.39102 22.5114 7.39102 22.5114C7.39102 22.5114 7.39103 22.5114 7.39103 22.5114C7.39103 22.5114 7.39103 22.5114 7.39103 22.5114C7.39104 22.5114 7.39104 22.5114 7.39104 22.5114C7.39104 22.5114 7.39105 22.5114 7.39105 22.5114C7.39105 22.5114 7.39105 22.5114 7.39106 22.5114C7.39106 22.5114 7.39106 22.5114 7.39106 22.5114C7.39106 22.5114 7.39107 22.5114 7.39107 22.5114C7.39107 22.5114 7.39107 22.5114 7.39108 22.5114C7.39108 22.5114 7.39108 22.5114 7.39108 22.5114C7.39108 22.5114 7.39109 22.5114 7.39109 22.5114C7.39109 22.5114 7.39109 22.5114 7.3911 22.5114C7.3911 22.5114 7.3911 22.5114 7.3911 22.5114C7.3911 22.5114 7.39111 22.5114 7.39111 22.5114C7.39111 22.5114 7.39111 22.5114 7.39112 22.5114C7.39112 22.5114 7.39112 22.5114 7.39112 22.5114C7.39113 22.5114 7.39113 22.5114 7.39113 22.5114C7.39113 22.5114 7.39113 22.5114 7.39114 22.5114C7.39114 22.5114 7.39114 22.5114 7.39114 22.5114C7.39115 22.5114 7.39115 22.5114 7.39115 22.5114C7.39115 22.5114 7.39115 22.5114 7.39116 22.5114C7.39116 22.5114 7.39116 22.5114 7.39116 22.5114C7.39117 22.5114 7.39117 22.5114 7.39117 22.5114C7.39117 22.5114 7.39117 22.5114 7.39118 22.5114C7.39118 22.5114 7.39118 22.5114 7.39118 22.5114C7.39119 22.5114 7.39119 22.5114 7.39119 22.5114C7.39119 22.5114 7.3912 22.5114 7.3912 22.5114C7.3912 22.5114 7.3912 22.5114 7.3912 22.5114C7.39121 22.5114 7.39121 22.5114 7.39121 22.5114C7.39121 22.5114 7.39122 22.5114 7.39122 22.5114C7.39122 22.5114 7.39122 22.5114 7.39122 22.5114C7.39123 22.5114 7.39123 22.5114 7.39123 22.5114C7.39123 22.5114 7.39124 22.5114 7.39124 22.5114C7.39124 22.5114 7.39124 22.5114 7.39124 22.5114C7.39125 22.5114 7.39125 22.5114 7.39125 22.5114C7.39125 22.5114 7.39126 22.5114 7.39126 22.5114C7.39126 22.5114 7.39126 22.5114 7.39126 22.5114C7.39127 22.5114 7.39127 22.5114 7.39127 22.5114C7.39127 22.5114 7.39128 22.5114 7.39128 22.5114C7.39128 22.5114 7.39128 22.5114 7.39128 22.5114C7.39129 22.5114 7.39129 22.5114 7.39129 22.5114C7.39129 22.5114 7.3913 22.5114 7.3913 22.5114C7.3913 22.5114 7.3913 22.5114 7.3913 22.5114C7.39131 22.5114 7.39131 22.5114 7.39131 22.5114C7.39131 22.5114 7.39132 22.5114 7.39132 22.5114C7.39132 22.5114 7.39132 22.5114 7.39132 22.5114C7.39133 22.5114 7.39133 22.5114 7.39133 22.5114C7.39133 22.5114 7.39134 22.5114 7.39134 22.5114C7.39134 22.5114 7.39134 22.5114 7.39134 22.5114C7.39135 22.5114 7.39135 22.5114 7.39135 22.5114C7.39135 22.5114 7.39136 22.5114 7.39136 22.5114C7.39136 22.5114 7.39136 22.5114 7.39136 22.5114C7.39137 22.5114 7.39137 22.5114 7.39137 22.5114C7.39137 22.5114 7.39138 22.5114 7.39138 22.5114C7.39138 22.5114 7.39138 22.5114 7.39138 22.5114C7.39139 22.5114 7.39139 22.5114 7.39139 22.5114C7.39139 22.5114 7.39139 22.5114 7.3914 22.5114V21.5114V20.5114C7.39139 20.5114 7.39139 20.5114 7.39139 20.5114C7.39139 20.5114 7.39139 20.5114 7.39138 20.5114C7.39138 20.5114 7.39138 20.5114 7.39138 20.5114C7.39138 20.5114 7.39137 20.5114 7.39137 20.5114C7.39137 20.5114 7.39137 20.5114 7.39136 20.5114C7.39136 20.5114 7.39136 20.5114 7.39136 20.5114C7.39136 20.5114 7.39135 20.5114 7.39135 20.5114C7.39135 20.5114 7.39135 20.5114 7.39134 20.5114C7.39134 20.5114 7.39134 20.5114 7.39134 20.5114C7.39134 20.5114 7.39133 20.5114 7.39133 20.5114C7.39133 20.5114 7.39133 20.5114 7.39132 20.5114C7.39132 20.5114 7.39132 20.5114 7.39132 20.5114C7.39132 20.5114 7.39131 20.5114 7.39131 20.5114C7.39131 20.5114 7.39131 20.5114 7.3913 20.5114C7.3913 20.5114 7.3913 20.5114 7.3913 20.5114C7.3913 20.5114 7.39129 20.5114 7.39129 20.5114C7.39129 20.5114 7.39129 20.5114 7.39128 20.5114C7.39128 20.5114 7.39128 20.5114 7.39128 20.5114C7.39128 20.5114 7.39127 20.5114 7.39127 20.5114C7.39127 20.5114 7.39127 20.5114 7.39126 20.5114C7.39126 20.5114 7.39126 20.5114 7.39126 20.5114C7.39126 20.5114 7.39125 20.5114 7.39125 20.5114C7.39125 20.5114 7.39125 20.5114 7.39124 20.5114C7.39124 20.5114 7.39124 20.5114 7.39124 20.5114C7.39124 20.5114 7.39123 20.5114 7.39123 20.5114C7.39123 20.5114 7.39123 20.5114 7.39122 20.5114C7.39122 20.5114 7.39122 20.5114 7.39122 20.5114C7.39122 20.5114 7.39121 20.5114 7.39121 20.5114C7.39121 20.5114 7.39121 20.5114 7.3912 20.5114C7.3912 20.5114 7.3912 20.5114 7.3912 20.5114C7.3912 20.5114 7.39119 20.5114 7.39119 20.5114C7.39119 20.5114 7.39119 20.5114 7.39118 20.5114C7.39118 20.5114 7.39118 20.5114 7.39118 20.5114C7.39117 20.5114 7.39117 20.5114 7.39117 20.5114C7.39117 20.5114 7.39117 20.5114 7.39116 20.5114C7.39116 20.5114 7.39116 20.5114 7.39116 20.5114C7.39115 20.5114 7.39115 20.5114 7.39115 20.5114C7.39115 20.5114 7.39115 20.5114 7.39114 20.5114C7.39114 20.5114 7.39114 20.5114 7.39114 20.5114C7.39113 20.5114 7.39113 20.5114 7.39113 20.5114C7.39113 20.5114 7.39113 20.5114 7.39112 20.5114C7.39112 20.5114 7.39112 20.5114 7.39112 20.5114C7.39111 20.5114 7.39111 20.5114 7.39111 20.5114C7.39111 20.5114 7.3911 20.5114 7.3911 20.5114C7.3911 20.5114 7.3911 20.5114 7.3911 20.5114C7.39109 20.5114 7.39109 20.5114 7.39109 20.5114C7.39109 20.5114 7.39108 20.5114 7.39108 20.5114C7.39108 20.5114 7.39108 20.5114 7.39108 20.5114C7.39107 20.5114 7.39107 20.5114 7.39107 20.5114C7.39107 20.5114 7.39106 20.5114 7.39106 20.5114C7.39106 20.5114 7.39106 20.5114 7.39106 20.5114C7.39105 20.5114 7.39105 20.5114 7.39105 20.5114C7.39105 20.5114 7.39104 20.5114 7.39104 20.5114C7.39104 20.5114 7.39104 20.5114 7.39103 20.5114C7.39103 20.5114 7.39103 20.5114 7.39103 20.5114C7.39103 20.5114 7.39102 20.5114 7.39102 20.5114C7.39102 20.5114 7.39102 20.5114 7.39101 20.5114C7.39101 20.5114 7.39101 20.5114 7.39101 20.5114C7.391 20.5114 7.391 20.5114 7.391 20.5114C7.391 20.5114 7.391 20.5114 7.39099 20.5114C7.39099 20.5114 7.39099 20.5114 7.39099 20.5114C7.39098 20.5114 7.39098 20.5114 7.39098 20.5114C7.39098 20.5114 7.39097 20.5114 7.39097 20.5114C7.39097 20.5114 7.39097 20.5114 7.39097 20.5114C7.39096 20.5114 7.39096 20.5114 7.39096 20.5114C7.39096 20.5114 7.39095 20.5114 7.39095 20.5114C7.39095 20.5114 7.39095 20.5114 7.39094 20.5114C7.39094 20.5114 7.39094 20.5114 7.39094 20.5114C7.39094 20.5114 7.39093 20.5114 7.39093 20.5114C7.39093 20.5114 7.39093 20.5114 7.39092 20.5114C7.39092 20.5114 7.39092 20.5114 7.39092 20.5114C7.39091 20.5114 7.39091 20.5114 7.39091 20.5114C7.39091 20.5114 7.39091 20.5114 7.3909 20.5114C7.3909 20.5114 7.3909 20.5114 7.3909 20.5114C7.39089 20.5114 7.39089 20.5114 7.39089 20.5114C7.39089 20.5114 7.39088 20.5114 7.39088 20.5114C7.39088 20.5114 7.39088 20.5114 7.39088 20.5114C7.39087 20.5114 7.39087 20.5114 7.39087 20.5114C7.39087 20.5114 7.39086 20.5114 7.39086 20.5114C7.39086 20.5114 7.39086 20.5114 7.39085 20.5114C7.39085 20.5114 7.39085 20.5114 7.39085 20.5114C7.39084 20.5114 7.39084 20.5114 7.39084 20.5114C7.39084 20.5114 7.39084 20.5114 7.39083 20.5114C7.39083 20.5114 7.39083 20.5114 7.39083 20.5114C7.39082 20.5114 7.39082 20.5114 7.39082 20.5114C7.39082 20.5114 7.39081 20.5114 7.39081 20.5114C7.39081 20.5114 7.39081 20.5114 7.39081 20.5114C7.3908 20.5114 7.3908 20.5114 7.3908 20.5114C7.3908 20.5114 7.39079 20.5114 7.39079 20.5114C7.39079 20.5114 7.39079 20.5114 7.39078 20.5114C7.39078 20.5114 7.39078 20.5114 7.39078 20.5114C7.39077 20.5114 7.39077 20.5114 7.39077 20.5114C7.39077 20.5114 7.39077 20.5114 7.39076 20.5114C7.39076 20.5114 7.39076 20.5114 7.39076 20.5114C7.39075 20.5114 7.39075 20.5114 7.39075 20.5114C7.39075 20.5114 7.39074 20.5114 7.39074 20.5114C7.39074 20.5114 7.39074 20.5114 7.39074 20.5114C7.39073 20.5114 7.39073 20.5114 7.39073 20.5114C7.39073 20.5114 7.39072 20.5114 7.39072 20.5114C7.39072 20.5114 7.39072 20.5114 7.39071 20.5114C7.39071 20.5114 7.39071 20.5114 7.39071 20.5114C7.3907 20.5114 7.3907 20.5114 7.3907 20.5114C7.3907 20.5114 7.3907 20.5114 7.39069 20.5114C7.39069 20.5114 7.39069 20.5114 7.39069 20.5114C7.39068 20.5114 7.39068 20.5114 7.39068 20.5114C7.39068 20.5114 7.39067 20.5114 7.39067 20.5114C7.39067 20.5114 7.39067 20.5114 7.39066 20.5114C7.39066 20.5114 7.39066 20.5114 7.39066 20.5114C7.39065 20.5114 7.39065 20.5114 7.39065 20.5114C7.39065 20.5114 7.39065 20.5114 7.39064 20.5114C7.39064 20.5114 7.39064 20.5114 7.39064 20.5114C7.39063 20.5114 7.39063 20.5114 7.39063 20.5114C7.39063 20.5114 7.39062 20.5114 7.39062 20.5114C7.39062 20.5114 7.39062 20.5114 7.39061 20.5114C7.39061 20.5114 7.39061 20.5114 7.39061 20.5114C7.3906 20.5114 7.3906 20.5114 7.3906 20.5114C7.3906 20.5114 7.3906 20.5114 7.39059 20.5114C7.39059 20.5114 7.39059 20.5114 7.39059 20.5114C7.39058 20.5114 7.39058 20.5114 7.39058 20.5114C7.39058 20.5114 7.39057 20.5114 7.39057 20.5114C7.39057 20.5114 7.39057 20.5114 7.39056 20.5114C7.39056 20.5114 7.39056 20.5114 7.39056 20.5114C7.39055 20.5114 7.39055 20.5114 7.39055 20.5114C7.39055 20.5114 7.39055 20.5114 7.39054 20.5114C7.39054 20.5114 7.39054 20.5114 7.39054 20.5114C7.39053 20.5114 7.39053 20.5114 7.39053 20.5114C7.39053 20.5114 7.39052 20.5114 7.39052 20.5114C7.39052 20.5114 7.39052 20.5114 7.39051 20.5114C7.39051 20.5114 7.39051 20.5114 7.39051 20.5114C7.3905 20.5114 7.3905 20.5114 7.3905 20.5114C7.3905 20.5114 7.3905 20.5114 7.39049 20.5114C7.39049 20.5114 7.39049 20.5114 7.39049 20.5114C7.39048 20.5114 7.39048 20.5114 7.39048 20.5114C7.39048 20.5114 7.39047 20.5114 7.39047 20.5114C7.39047 20.5114 7.39047 20.5114 7.39046 20.5114C7.39046 20.5114 7.39046 20.5114 7.39046 20.5114C7.39045 20.5114 7.39045 20.5114 7.39045 20.5114C7.39045 20.5114 7.39045 20.5114 7.39044 20.5114C7.39044 20.5114 7.39044 20.5114 7.39044 20.5114C7.39043 20.5114 7.39043 20.5114 7.39043 20.5114C7.39043 20.5114 7.39042 20.5114 7.39042 20.5114C7.39042 20.5114 7.39042 20.5114 7.39041 20.5114C7.39041 20.5114 7.39041 20.5114 7.39041 20.5114C7.3904 20.5114 7.3904 20.5114 7.3904 20.5114C7.3904 20.5114 7.39039 20.5114 7.39039 20.5114C7.39039 20.5114 7.39039 20.5114 7.39039 20.5114C7.39038 20.5114 7.39038 20.5114 7.39038 20.5114C7.39038 20.5114 7.39037 20.5114 7.39037 20.5114C7.39037 20.5114 7.39037 20.5114 7.39036 20.5114C7.39036 20.5114 7.39036 20.5114 7.39036 20.5114C7.39035 20.5114 7.39035 20.5114 7.39035 20.5114C7.39035 20.5114 7.39034 20.5114 7.39034 20.5114C7.39034 20.5114 7.39034 20.5114 7.39033 20.5114C7.39033 20.5114 7.39033 20.5114 7.39033 20.5114C7.39032 20.5114 7.39032 20.5114 7.39032 20.5114C7.39032 20.5114 7.39032 20.5114 7.39031 20.5114C7.39031 20.5114 7.39031 20.5114 7.39031 20.5114C7.3903 20.5114 7.3903 20.5114 7.3903 20.5114C7.3903 20.5114 7.39029 20.5114 7.39029 20.5114C7.39029 20.5114 7.39029 20.5114 7.39028 20.5114C7.39028 20.5114 7.39028 20.5114 7.39028 20.5114C7.39027 20.5114 7.39027 20.5114 7.39027 20.5114C7.39027 20.5114 7.39026 20.5114 7.39026 20.5114C7.39026 20.5114 7.39026 20.5114 7.39025 20.5114C7.39025 20.5114 7.39025 20.5114 7.39025 20.5114C7.39024 20.5114 7.39024 20.5114 7.39024 20.5114C7.39024 20.5114 7.39024 20.5114 7.39023 20.5114C7.39023 20.5114 7.39023 20.5114 7.39023 20.5114C7.39022 20.5114 7.39022 20.5114 7.39022 20.5114C7.39022 20.5114 7.39021 20.5114 7.39021 20.5114C7.39021 20.5114 7.39021 20.5114 7.3902 20.5114C7.3902 20.5114 7.3902 20.5114 7.3902 20.5114C7.39019 20.5114 7.39019 20.5114 7.39019 20.5114C7.39019 20.5114 7.39018 20.5114 7.39018 20.5114C7.39018 20.5114 7.39018 20.5114 7.39017 20.5114C7.39017 20.5114 7.39017 20.5114 7.39017 20.5114C7.39016 20.5114 7.39016 20.5114 7.39016 20.5114C7.39016 20.5114 7.39016 20.5114 7.39015 20.5114C7.39015 20.5114 7.39015 20.5114 7.39015 20.5114C7.39014 20.5114 7.39014 20.5114 7.39014 20.5114C7.39014 20.5114 7.39013 20.5114 7.39013 20.5114C7.39013 20.5114 7.39013 20.5114 7.39012 20.5114C7.39012 20.5114 7.39012 20.5114 7.39012 20.5114C7.39011 20.5114 7.39011 20.5114 7.39011 20.5114C7.39011 20.5114 7.3901 20.5114 7.3901 20.5114C7.3901 20.5114 7.3901 20.5114 7.39009 20.5114C7.39009 20.5114 7.39009 20.5114 7.39009 20.5114C7.39008 20.5114 7.39008 20.5114 7.39008 20.5114C7.39008 20.5114 7.39007 20.5114 7.39007 20.5114C7.39007 20.5114 7.39007 20.5114 7.39007 20.5114C7.39006 20.5114 7.39006 20.5114 7.39006 20.5114C7.39006 20.5114 7.39005 20.5114 7.39005 20.5114C7.39005 20.5114 7.39005 20.5114 7.39004 20.5114C7.39004 20.5114 7.39004 20.5114 7.39004 20.5114C7.39003 20.5114 7.39003 20.5114 7.39003 20.5114C7.39003 20.5114 7.39002 20.5114 7.39002 20.5114C7.39002 20.5114 7.39002 20.5114 7.39001 20.5114C7.39001 20.5114 7.39001 20.5114 7.39001 20.5114C7.39 20.5114 7.39 20.5114 7.39 20.5114C7.39 20.5114 7.38999 20.5114 7.38999 20.5114C7.38999 20.5114 7.38999 20.5114 7.38998 20.5114C7.38998 20.5114 7.38998 20.5114 7.38998 20.5114C7.38997 20.5114 7.38997 20.5114 7.38997 20.5114C7.38997 20.5114 7.38997 20.5114 7.38996 20.5114C7.38996 20.5114 7.38996 20.5114 7.38996 20.5114C7.38995 20.5114 7.38995 20.5114 7.38995 20.5114C7.38995 20.5114 7.38994 20.5114 7.38994 20.5114C7.38994 20.5114 7.38994 20.5114 7.38993 20.5114C7.38993 20.5114 7.38993 20.5114 7.38993 20.5114C7.38992 20.5114 7.38992 20.5114 7.38992 20.5114C7.38992 20.5114 7.38991 20.5114 7.38991 20.5114C7.38991 20.5114 7.38991 20.5114 7.3899 20.5114C7.3899 20.5114 7.3899 20.5114 7.3899 20.5114C7.38989 20.5114 7.38989 20.5114 7.38989 20.5114C7.38989 20.5114 7.38988 20.5114 7.38988 20.5114C7.38988 20.5114 7.38988 20.5114 7.38987 20.5114C7.38987 20.5114 7.38987 20.5114 7.38987 20.5114C7.38986 20.5114 7.38986 20.5114 7.38986 20.5114C7.38986 20.5114 7.38985 20.5114 7.38985 20.5114C7.38985 20.5114 7.38985 20.5114 7.38984 20.5114C7.38984 20.5114 7.38984 20.5114 7.38984 20.5114C7.38983 20.5114 7.38983 20.5114 7.38983 20.5114C7.38983 20.5114 7.38983 20.5114 7.38982 20.5114C7.38982 20.5114 7.38982 20.5114 7.38982 20.5114C7.38981 20.5114 7.38981 20.5114 7.38981 20.5114C7.38981 20.5114 7.3898 20.5114 7.3898 20.5114C7.3898 20.5114 7.3898 20.5114 7.38979 20.5114C7.38979 20.5114 7.38979 20.5114 7.38979 20.5114C7.38978 20.5114 7.38978 20.5114 7.38978 20.5114C7.38978 20.5114 7.38977 20.5114 7.38977 20.5114C7.38977 20.5114 7.38977 20.5114 7.38976 20.5114C7.38976 20.5114 7.38976 20.5114 7.38976 20.5114C7.38975 20.5114 7.38975 20.5114 7.38975 20.5114C7.38975 20.5114 7.38974 20.5114 7.38974 20.5114C7.38974 20.5114 7.38974 20.5114 7.38973 20.5114C7.38973 20.5114 7.38973 20.5114 7.38973 20.5114C7.38972 20.5114 7.38972 20.5114 7.38972 20.5114C7.38972 20.5114 7.38971 20.5114 7.38971 20.5114C7.38971 20.5114 7.38971 20.5114 7.38971 20.5114C7.3897 20.5114 7.3897 20.5114 7.3897 20.5114C7.3897 20.5114 7.38969 20.5114 7.38969 20.5114C7.38969 20.5114 7.38969 20.5114 7.38968 20.5114C7.38968 20.5114 7.38968 20.5114 7.38968 20.5114C7.38967 20.5114 7.38967 20.5114 7.38967 20.5114C7.38967 20.5114 7.38966 20.5114 7.38966 20.5114C7.38966 20.5114 7.38966 20.5114 7.38965 20.5114C7.38965 20.5114 7.38965 20.5114 7.38965 20.5114C7.38964 20.5114 7.38964 20.5114 7.38964 20.5114C7.38964 20.5114 7.38963 20.5114 7.38963 20.5114C7.38963 20.5114 7.38963 20.5114 7.38962 20.5114C7.38962 20.5114 7.38962 20.5114 7.38962 20.5114C7.38961 20.5114 7.38961 20.5114 7.38961 20.5114C7.38961 20.5114 7.3896 20.5114 7.3896 20.5114C7.3896 20.5114 7.3896 20.5114 7.38959 20.5114C7.38959 20.5114 7.38959 20.5114 7.38959 20.5114C7.38958 20.5114 7.38958 20.5114 7.38958 20.5114C7.38958 20.5114 7.38958 20.5114 7.38957 20.5114C7.38957 20.5114 7.38957 20.5114 7.38956 20.5114C7.38956 20.5114 7.38956 20.5114 7.38956 20.5114C7.38955 20.5114 7.38955 20.5114 7.38955 20.5114C7.38955 20.5114 7.38955 20.5114 7.38954 20.5114C7.38954 20.5114 7.38954 20.5114 7.38954 20.5114C7.38953 20.5114 7.38953 20.5114 7.38953 20.5114C7.38953 20.5114 7.38952 20.5114 7.38952 20.5114C7.38952 20.5114 7.38952 20.5114 7.38951 20.5114C7.38951 20.5114 7.38951 20.5114 7.38951 20.5114C7.3895 20.5114 7.3895 20.5114 7.3895 20.5114C7.3895 20.5114 7.38949 20.5114 7.38949 20.5114C7.38949 20.5114 7.38949 20.5114 7.38948 20.5114C7.38948 20.5114 7.38948 20.5114 7.38948 20.5114C7.38947 20.5114 7.38947 20.5114 7.38947 20.5114C7.38947 20.5114 7.38946 20.5114 7.38946 20.5114C7.38946 20.5114 7.38946 20.5114 7.38945 20.5114C7.38945 20.5114 7.38945 20.5114 7.38945 20.5114C7.38944 20.5114 7.38944 20.5114 7.38944 20.5114C7.38944 20.5114 7.38943 20.5114 7.38943 20.5114C7.38943 20.5114 7.38943 20.5114 7.38942 20.5114C7.38942 20.5114 7.38942 20.5114 7.38942 20.5114C7.38942 20.5114 7.38941 20.5114 7.38941 20.5114C7.38941 20.5114 7.38941 20.5114 7.3894 20.5114C7.3894 20.5114 7.3894 20.5114 7.3894 20.5114C7.38939 20.5114 7.38939 20.5114 7.38939 20.5114C7.38939 20.5114 7.38938 20.5114 7.38938 20.5114C7.38938 20.5114 7.38938 20.5114 7.38937 20.5114C7.38937 20.5114 7.38937 20.5114 7.38937 20.5114C7.38936 20.5114 7.38936 20.5114 7.38936 20.5114C7.38936 20.5114 7.38935 20.5114 7.38935 20.5114C7.38935 20.5114 7.38935 20.5114 7.38934 20.5114C7.38934 20.5114 7.38934 20.5114 7.38934 20.5114C7.38933 20.5114 7.38933 20.5114 7.38933 20.5114C7.38933 20.5114 7.38932 20.5114 7.38932 20.5114C7.38932 20.5114 7.38932 20.5114 7.38931 20.5114C7.38931 20.5114 7.38931 20.5114 7.38931 20.5114C7.3893 20.5114 7.3893 20.5114 7.3893 20.5114C7.3893 20.5114 7.3893 20.5114 7.38929 20.5114C7.38929 20.5114 7.38929 20.5114 7.38929 20.5114C7.38928 20.5114 7.38928 20.5114 7.38928 20.5114C7.38928 20.5114 7.38927 20.5114 7.38927 20.5114C7.38927 20.5114 7.38927 20.5114 7.38926 20.5114C7.38926 20.5114 7.38926 20.5114 7.38926 20.5114C7.38925 20.5114 7.38925 20.5114 7.38925 20.5114C7.38925 20.5114 7.38924 20.5114 7.38924 20.5114C7.38924 20.5114 7.38924 20.5114 7.38923 20.5114C7.38923 20.5114 7.38923 20.5114 7.38923 20.5114C7.38922 20.5114 7.38922 20.5114 7.38922 20.5114C7.38922 20.5114 7.38921 20.5114 7.38921 20.5114C7.38921 20.5114 7.38921 20.5114 7.3892 20.5114C7.3892 20.5114 7.3892 20.5114 7.3892 20.5114C7.38919 20.5114 7.38919 20.5114 7.38919 20.5114C7.38919 20.5114 7.38918 20.5114 7.38918 20.5114C7.38918 20.5114 7.38918 20.5114 7.38917 20.5114C7.38917 20.5114 7.38917 20.5114 7.38917 20.5114C7.38917 20.5114 7.38916 20.5114 7.38916 20.5114C7.38916 20.5114 7.38916 20.5114 7.38915 20.5114C7.38915 20.5114 7.38915 20.5114 7.38915 20.5114C7.38914 20.5114 7.38914 20.5114 7.38914 20.5114C7.38914 20.5114 7.38913 20.5114 7.38913 20.5114C7.38913 20.5114 7.38913 20.5114 7.38912 20.5114C7.38912 20.5114 7.38912 20.5114 7.38912 20.5114C7.38911 20.5114 7.38911 20.5114 7.38911 20.5114C7.38911 20.5114 7.3891 20.5114 7.3891 20.5114C7.3891 20.5114 7.3891 20.5114 7.38909 20.5114C7.38909 20.5114 7.38909 20.5114 7.38909 20.5114C7.38908 20.5114 7.38908 20.5114 7.38908 20.5114C7.38908 20.5114 7.38907 20.5114 7.38907 20.5114C7.38907 20.5114 7.38907 20.5114 7.38907 20.5114C7.38906 20.5114 7.38906 20.5114 7.38906 20.5114C7.38906 20.5114 7.38905 20.5114 7.38905 20.5114C7.38905 20.5114 7.38905 20.5114 7.38904 20.5114C7.38904 20.5114 7.38904 20.5114 7.38904 20.5114C7.38903 20.5114 7.38903 20.5114 7.38903 20.5114C7.38903 20.5114 7.38902 20.5114 7.38902 20.5114C7.38902 20.5114 7.38902 20.5114 7.38901 20.5114C7.38901 20.5114 7.38901 20.5114 7.38901 20.5114C7.389 20.5114 7.389 20.5114 7.389 20.5114C7.389 20.5114 7.38899 20.5114 7.38899 20.5114C7.38899 20.5114 7.38899 20.5114 7.38898 20.5114C7.38898 20.5114 7.38898 20.5114 7.38898 20.5114C7.38898 20.5114 7.38897 20.5114 7.38897 20.5114C7.38897 20.5114 7.38897 20.5114 7.38896 20.5114C7.38896 20.5114 7.38896 20.5114 7.38896 20.5114C7.38895 20.5114 7.38895 20.5114 7.38895 20.5114C7.38895 20.5114 7.38894 20.5114 7.38894 20.5114C7.38894 20.5114 7.38894 20.5114 7.38893 20.5114C7.38893 20.5114 7.38893 20.5114 7.38893 20.5114C7.38892 20.5114 7.38892 20.5114 7.38892 20.5114C7.38892 20.5114 7.38891 20.5114 7.38891 20.5114C7.38891 20.5114 7.38891 20.5114 7.3889 20.5114C7.3889 20.5114 7.3889 20.5114 7.3889 20.5114C7.3889 20.5114 7.38889 20.5114 7.38889 20.5114C7.38889 20.5114 7.38889 20.5114 7.38888 20.5114C7.38888 20.5114 7.38888 20.5114 7.38888 20.5114C7.38887 20.5114 7.38887 20.5114 7.38887 20.5114C7.38887 20.5114 7.38886 20.5114 7.38886 20.5114C7.38886 20.5114 7.38886 20.5114 7.38885 20.5114C7.38885 20.5114 7.38885 20.5114 7.38885 20.5114C7.38884 20.5114 7.38884 20.5114 7.38884 20.5114C7.38884 20.5114 7.38883 20.5114 7.38883 20.5114C7.38883 20.5114 7.38883 20.5114 7.38882 20.5114C7.38882 20.5114 7.38882 20.5114 7.38882 20.5114C7.38882 20.5114 7.38881 20.5114 7.38881 20.5114C7.38881 20.5114 7.38881 20.5114 7.3888 20.5114C7.3888 20.5114 7.3888 20.5114 7.3888 20.5114C7.38879 20.5114 7.38879 20.5114 7.38879 20.5114C7.38879 20.5114 7.38878 20.5114 7.38878 20.5114C7.38878 20.5114 7.38878 20.5114 7.38877 20.5114C7.38877 20.5114 7.38877 20.5114 7.38877 20.5114C7.38876 20.5114 7.38876 20.5114 7.38876 20.5114C7.38876 20.5114 7.38876 20.5114 7.38875 20.5114C7.38875 20.5114 7.38875 20.5114 7.38875 20.5114C7.38874 20.5114 7.38874 20.5114 7.38874 20.5114C7.38874 20.5114 7.38873 20.5114 7.38873 20.5114C7.38873 20.5114 7.38873 20.5114 7.38872 20.5114C7.38872 20.5114 7.38872 20.5114 7.38872 20.5114C7.38871 20.5114 7.38871 20.5114 7.38871 20.5114C7.38871 20.5114 7.3887 20.5114 7.3887 20.5114C7.3887 20.5114 7.3887 20.5114 7.3887 20.5114C7.38869 20.5114 7.38869 20.5114 7.38869 20.5114C7.38869 20.5114 7.38868 20.5114 7.38868 20.5114C7.38868 20.5114 7.38868 20.5114 7.38867 20.5114C7.38867 20.5114 7.38867 20.5114 7.38867 20.5114C7.38866 20.5114 7.38866 20.5114 7.38866 20.5114C7.38866 20.5114 7.38865 20.5114 7.38865 20.5114C7.38865 20.5114 7.38865 20.5114 7.38864 20.5114C7.38864 20.5114 7.38864 20.5114 7.38864 20.5114C7.38864 20.5114 7.38863 20.5114 7.38863 20.5114C7.38863 20.5114 7.38863 20.5114 7.38862 20.5114C7.38862 20.5114 7.38862 20.5114 7.38862 20.5114C7.38861 20.5114 7.38861 20.5114 7.38861 20.5114C7.38861 20.5114 7.3886 20.5114 7.3886 20.5114C7.3886 20.5114 7.3886 20.5114 7.38859 20.5114C7.38859 20.5114 7.38859 20.5114 7.38859 20.5114C7.38859 20.5114 7.38858 20.5114 7.38858 20.5114C7.38858 20.5114 7.38858 20.5114 7.38857 20.5114C7.38857 20.5114 7.38857 20.5114 7.38857 20.5114C7.38856 20.5114 7.38856 20.5114 7.38856 20.5114C7.38856 20.5114 7.38855 20.5114 7.38855 20.5114C7.38855 20.5114 7.38855 20.5114 7.38855 20.5114C7.38854 20.5114 7.38854 20.5114 7.38854 20.5114C7.38854 20.5114 7.38853 20.5114 7.38853 20.5114C7.38853 20.5114 7.38853 20.5114 7.38852 20.5114C7.38852 20.5114 7.38852 20.5114 7.38852 20.5114C7.38851 20.5114 7.38851 20.5114 7.38851 20.5114C7.38851 20.5114 7.3885 20.5114 7.3885 20.5114C7.3885 20.5114 7.3885 20.5114 7.38849 20.5114C7.38849 20.5114 7.38849 20.5114 7.38849 20.5114C7.38849 20.5114 7.38848 20.5114 7.38848 20.5114C7.38848 20.5114 7.38848 20.5114 7.38847 20.5114C7.38847 20.5114 7.38847 20.5114 7.38847 20.5114C7.38846 20.5114 7.38846 20.5114 7.38846 20.5114C7.38846 20.5114 7.38845 20.5114 7.38845 20.5114C7.38845 20.5114 7.38845 20.5114 7.38845 20.5114C7.38844 20.5114 7.38844 20.5114 7.38844 20.5114C7.38844 20.5114 7.38843 20.5114 7.38843 20.5114C7.38843 20.5114 7.38843 20.5114 7.38842 20.5114C7.38842 20.5114 7.38842 20.5114 7.38842 20.5114C7.38841 20.5114 7.38841 20.5114 7.38841 20.5114C7.38841 20.5114 7.38841 20.5114 7.3884 20.5114C7.3884 20.5114 7.3884 20.5114 7.3884 20.5114C7.38839 20.5114 7.38839 20.5114 7.38839 20.5114C7.38839 20.5114 7.38838 20.5114 7.38838 20.5114C7.38838 20.5114 7.38838 20.5114 7.38838 20.5114C7.38837 20.5114 7.38837 20.5114 7.38837 20.5114C7.38837 20.5114 7.38836 20.5114 7.38836 20.5114C7.38836 20.5114 7.38836 20.5114 7.38835 20.5114C7.38835 20.5114 7.38835 20.5114 7.38835 20.5114C7.38834 20.5114 7.38834 20.5114 7.38834 20.5114C7.38834 20.5114 7.38834 20.5114 7.38833 20.5114C7.38833 20.5114 7.38833 20.5114 7.38833 20.5114C7.38832 20.5114 7.38832 20.5114 7.38832 20.5114C7.38832 20.5114 7.38831 20.5114 7.38831 20.5114C7.38831 20.5114 7.38831 20.5114 7.38831 20.5114C7.3883 20.5114 7.3883 20.5114 7.3883 20.5114C7.3883 20.5114 7.38829 20.5114 7.38829 20.5114C7.38829 20.5114 7.38829 20.5114 7.38828 20.5114C7.38828 20.5114 7.38828 20.5114 7.38828 20.5114C7.38827 20.5114 7.38827 20.5114 7.38827 20.5114C7.38827 20.5114 7.38827 20.5114 7.38826 20.5114C7.38826 20.5114 7.38826 20.5114 7.38826 20.5114C7.38825 20.5114 7.38825 20.5114 7.38825 20.5114C7.38825 20.5114 7.38824 20.5114 7.38824 20.5114C7.38824 20.5114 7.38824 20.5114 7.38824 20.5114C7.38823 20.5114 7.38823 20.5114 7.38823 20.5114C7.38823 20.5114 7.38822 20.5114 7.38822 20.5114C7.38822 20.5114 7.38822 20.5114 7.38821 20.5114C7.38821 20.5114 7.38821 20.5114 7.38821 20.5114C7.38821 20.5114 7.3882 20.5114 7.3882 20.5114C7.3882 20.5114 7.3882 20.5114 7.38819 20.5114C7.38819 20.5114 7.38819 20.5114 7.38819 20.5114C7.38818 20.5114 7.38818 20.5114 7.38818 20.5114C7.38818 20.5114 7.38818 20.5114 7.38817 20.5114C7.38817 20.5114 7.38817 20.5114 7.38817 20.5114C7.38816 20.5114 7.38816 20.5114 7.38816 20.5114C7.38816 20.5114 7.38815 20.5114 7.38815 20.5114C7.38815 20.5114 7.38815 20.5114 7.38815 20.5114C7.38814 20.5114 7.38814 20.5114 7.38814 20.5114C7.38814 20.5114 7.38813 20.5114 7.38813 20.5114C7.38813 20.5114 7.38813 20.5114 7.38812 20.5114C7.38812 20.5114 7.38812 20.5114 7.38812 20.5114C7.38812 20.5114 7.38811 20.5114 7.38811 20.5114C7.38811 20.5114 7.38811 20.5114 7.3881 20.5114C7.3881 20.5114 7.3881 20.5114 7.3881 20.5114C7.3881 20.5114 7.38809 20.5114 7.38809 20.5114C7.38809 20.5114 7.38809 20.5114 7.38808 20.5114C7.38808 20.5114 7.38808 20.5114 7.38808 20.5114C7.38807 20.5114 7.38807 20.5114 7.38807 20.5114C7.38807 20.5114 7.38807 20.5114 7.38806 20.5114C7.38806 20.5114 7.38806 20.5114 7.38806 20.5114C7.38805 20.5114 7.38805 20.5114 7.38805 20.5114C7.38805 20.5114 7.38805 20.5114 7.38804 20.5114C7.38804 20.5114 7.38804 20.5114 7.38804 20.5114C7.38803 20.5114 7.38803 20.5114 7.38803 20.5114C7.38803 20.5114 7.38802 20.5114 7.38802 20.5114C7.38802 20.5114 7.38802 20.5114 7.38802 20.5114C7.38801 20.5114 7.38801 20.5114 7.38801 20.5114C7.38801 20.5114 7.388 20.5114 7.388 20.5114C7.388 20.5114 7.388 20.5114 7.388 20.5114C7.38799 20.5114 7.38799 20.5114 7.38799 20.5114C7.38799 20.5114 7.38798 20.5114 7.38798 20.5114C7.38798 20.5114 7.38798 20.5114 7.38798 20.5114C7.38797 20.5114 7.38797 20.5114 7.38797 20.5114C7.38797 20.5114 7.38796 20.5114 7.38796 20.5114C7.38796 20.5114 7.38796 20.5114 7.38796 20.5114C7.38795 20.5114 7.38795 20.5114 7.38795 20.5114C7.38795 20.5114 7.38794 20.5114 7.38794 20.5114C7.38794 20.5114 7.38794 20.5114 7.38794 20.5114C7.38793 20.5114 7.38793 20.5114 7.38793 20.5114C7.38793 20.5114 7.38792 20.5114 7.38792 20.5114C7.38792 20.5114 7.38792 20.5114 7.38792 20.5114C7.38791 20.5114 7.38791 20.5114 7.38791 20.5114C7.38791 20.5114 7.3879 20.5114 7.3879 20.5114C7.3879 20.5114 7.3879 20.5114 7.3879 20.5114C7.38789 20.5114 7.38789 20.5114 7.38789 20.5114C7.38789 20.5114 7.38788 20.5114 7.38788 20.5114C7.38788 20.5114 7.38788 20.5114 7.38788 20.5114C7.38787 20.5114 7.38787 20.5114 7.38787 20.5114C7.38787 20.5114 7.38786 20.5114 7.38786 20.5114C7.38786 20.5114 7.38786 20.5114 7.38786 20.5114C7.38785 20.5114 7.38785 20.5114 7.38785 20.5114C7.38785 20.5114 7.38784 20.5114 7.38784 20.5114C7.38784 20.5114 7.38784 20.5114 7.38784 20.5114C7.38783 20.5114 7.38783 20.5114 7.38783 20.5114C7.38783 20.5114 7.38782 20.5114 7.38782 20.5114C7.38782 20.5114 7.38782 20.5114 7.38781 20.5114C7.38781 20.5114 7.38781 20.5114 7.38781 20.5114C7.38781 20.5114 7.3878 20.5114 7.3878 20.5114C7.3878 20.5114 7.3878 20.5114 7.3878 20.5114C7.38779 20.5114 7.38779 20.5114 7.38779 20.5114C7.38779 20.5114 7.38778 20.5114 7.38778 20.5114C7.38778 20.5114 7.38778 20.5114 7.38778 20.5114C7.38777 20.5114 7.38777 20.5114 7.38777 20.5114C7.38777 20.5114 7.38776 20.5114 7.38776 20.5114V21.5114ZM7.3914 21.5114V22.5114C7.88265 22.5114 8.33802 22.2573 8.59665 21.8415L7.74753 21.3133L6.89841 20.7851C7.00386 20.6156 7.18975 20.5114 7.3914 20.5114V21.5114ZM7.74753 21.3133L8.59695 21.841L10.0282 19.5374L9.17879 19.0096L8.32938 18.4819L6.89812 20.7856L7.74753 21.3133ZM9.17879 19.0096L9.07098 20.0038C10.392 20.1471 11.5143 20.4703 12.2743 20.8547C12.656 21.0478 12.9047 21.2355 13.0451 21.387C13.1856 21.5386 13.1611 21.5885 13.1611 21.5394H14.1611H15.1611C15.1611 20.9216 14.8657 20.409 14.5119 20.0274C14.158 19.6456 13.689 19.3291 13.1771 19.0701C12.1498 18.5504 10.7808 18.1775 9.28661 18.0155L9.17879 19.0096ZM14.1611 21.5394L13.1611 21.5397C13.1611 21.47 13.195 21.545 12.9814 21.7492C12.7776 21.944 12.4279 22.1746 11.911 22.3948C10.8832 22.8326 9.35569 23.1605 7.50014 23.1605V24.1605V25.1605C9.57021 25.1605 11.3733 24.7977 12.6947 24.2349C13.3523 23.9548 13.9318 23.6076 14.3636 23.1947C14.7855 22.7913 15.1612 22.2287 15.1611 21.5392L14.1611 21.5394Z" fill="#878787" mask="url(#path-1-inside-1_286_688)"/>
<path d="M10 6.5C10 5.12155 8.87845 4 7.5 4C6.12155 4 5 5.12155 5 6.5C5 7.87845 6.12155 9 7.5 9C8.87845 9 10 7.87845 10 6.5ZM5.76994 6.5C5.76994 5.54604 6.54604 4.76994 7.5 4.76994C8.45396 4.76994 9.23006 5.54604 9.23006 6.5C9.23006 7.45396 8.45421 8.23006 7.5 8.23006C6.54579 8.23006 5.76994 7.45396 5.76994 6.5Z" fill="#878787"/>
</svg>
