<svg width="24" height="24" viewBox="0 0 24 24" fill="none" xmlns="http://www.w3.org/2000/svg">
<path d="M9.116 15.187C5.562 15.655 3 16.96 3 18.5C3 20.433 7.029 22 12 22C16.971 22 21 20.433 21 18.5C21 16.96 18.438 15.655 14.884 15.187" stroke="#3CC572" stroke-width="1.5" stroke-linecap="round" stroke-linejoin="round"/>
<path fill-rule="evenodd" clip-rule="evenodd" d="M18 8.833C18 5.612 15.314 3 12 3C8.686 3 6 5.612 6 8.833C6 13.208 12 18 12 18C12 18 18 13.208 18 8.833Z" stroke="#3CC572" stroke-width="1.5" stroke-linecap="round" stroke-linejoin="round"/>
<path d="M13.4142 7.58579C14.1953 8.36684 14.1953 9.63317 13.4142 10.4142C12.6332 11.1953 11.3668 11.1953 10.5858 10.4142C9.80473 9.63317 9.80473 8.36684 10.5858 7.58579C11.3668 6.80474 12.6332 6.80474 13.4142 7.58579Z" stroke="#3BC471" stroke-width="1.5" stroke-linecap="round" stroke-linejoin="round"/>
</svg>
