<svg width="20" height="20" viewBox="0 0 20 20" fill="none" xmlns="http://www.w3.org/2000/svg">
<path d="M14.1665 15.3581H10.8332L7.12483 17.8247C6.57483 18.1914 5.83317 17.7998 5.83317 17.1331V15.3581C3.33317 15.3581 1.6665 13.6914 1.6665 11.1914V6.19139C1.6665 3.69139 3.33317 2.02472 5.83317 2.02472H14.1665C16.6665 2.02472 18.3332 3.69139 18.3332 6.19139V11.1914C18.3332 13.6914 16.6665 15.3581 14.1665 15.3581Z" stroke="#211B2A" stroke-width="1.25" stroke-miterlimit="10" stroke-linecap="round" stroke-linejoin="round"/>
<path d="M10 9.46613V9.29116C10 8.72449 10.35 8.42448 10.7 8.18281C11.0417 7.94948 11.3833 7.64949 11.3833 7.09949C11.3833 6.33282 10.7667 5.71613 10 5.71613C9.23334 5.71613 8.6167 6.33282 8.6167 7.09949" stroke="#211B2A" stroke-width="1.25" stroke-linecap="round" stroke-linejoin="round"/>
<path d="M9.99641 11.4584H10.0039" stroke="#211B2A" stroke-width="1.25" stroke-linecap="round" stroke-linejoin="round"/>
</svg>
