<svg width="16" height="18" viewBox="0 0 16 18" fill="none" xmlns="http://www.w3.org/2000/svg">
<path d="M5.70267 16.4583C6.29028 16.977 7.06216 17.2917 7.90753 17.2917C8.7529 17.2917 9.52477 16.977 10.1124 16.4583M12.9075 5.625C12.9075 4.29892 12.3807 3.02715 11.4431 2.08947C10.5054 1.15178 9.23361 0.625 7.90753 0.625C6.58144 0.625 5.30967 1.15178 4.37199 2.08947C3.43431 3.02715 2.90753 4.29892 2.90753 5.625C2.90753 8.20015 2.25792 9.9633 1.53225 11.1295C0.920133 12.1132 0.614075 12.6051 0.625298 12.7423C0.637724 12.8942 0.66991 12.9522 0.79234 13.043C0.902909 13.125 1.40135 13.125 2.39824 13.125H13.4168C14.4137 13.125 14.9121 13.125 15.0227 13.043C15.1451 12.9522 15.1773 12.8942 15.1898 12.7423C15.201 12.6051 14.8949 12.1132 14.2828 11.1295C13.5571 9.9633 12.9075 8.20015 12.9075 5.625Z" stroke="#667791" stroke-width="1.25" stroke-linecap="round" stroke-linejoin="round"/>
</svg>
