<svg width="28" height="28" viewBox="0 0 28 28" fill="none" xmlns="http://www.w3.org/2000/svg">
<path d="M13.9111 12.4353C13.7967 12.4239 13.6594 12.4239 13.5336 12.4353C10.8108 12.3438 8.64868 10.113 8.64868 7.36738C8.64868 4.56458 10.9138 2.28802 13.728 2.28802C16.5308 2.28802 18.8074 4.56458 18.8074 7.36738C18.796 10.113 16.6338 12.3438 13.9111 12.4353Z" stroke="#878787" stroke-width="1.716" stroke-linecap="round" stroke-linejoin="round"/>
<path d="M8.19098 16.6566C5.4225 18.5099 5.4225 21.5301 8.19098 23.3719C11.337 25.4769 16.4964 25.4769 19.6424 23.3719C22.4109 21.5186 22.4109 18.4985 19.6424 16.6566C16.5079 14.5631 11.3484 14.5631 8.19098 16.6566Z" stroke="#878787" stroke-width="1.716" stroke-linecap="round" stroke-linejoin="round"/>
</svg>
